<?xml version="1.0" encoding="utf-8"?>
<!-- Generator: Adobe Illustrator 21.0.2, SVG Export Plug-In . SVG Version: 6.00 Build 0)  -->
<svg version="1.1" id="Слой_1" xmlns="http://www.w3.org/2000/svg" xmlns:xlink="http://www.w3.org/1999/xlink" x="0px" y="0px"
	 viewBox="0 0 120 42" style="enable-background:new 0 0 120 42;" xml:space="preserve">
<style type="text/css">
	.st0{fill:#FFFFFF;}
</style>
<g>
	<path class="st0" d="M19.8,21.3c-0.6-0.3-0.9-1.1-0.6-1.7c0.3-0.6,1.1-0.9,1.7-0.6l0,0c0.1,0,0.3,0.1,0.3,0.1
		c0.1,0,0.3,0.1,0.3,0.1c0.6,0.2,1.2,0.3,1.9,0.3l0,0l0,0c1.7,0,3.2-0.7,4.3-1.8c1.1-1.1,1.8-2.6,1.8-4.3l0,0l0,0l0,0l0,0
		c0-1.6-0.7-3.2-1.8-4.3l0,0l0,0c-1.1-1.1-2.6-1.8-4.3-1.8l0,0l0,0l0,0l0,0c-1.7,0-3.2,0.7-4.3,1.8c0,0,0,0,0,0
		c-1,1.1-1.7,2.5-1.7,4.1c0,0,0,0.1,0,0.1l0,0l0,0l0,0c0,0,0,0.1,0,0.1c0,2.3-1,4.4-2.5,5.9c-1.6,1.6-3.7,2.5-6.1,2.5l0,0l0,0l0,0
		l0,0c-2.4,0-4.5-1-6.1-2.5c-1.6-1.6-2.5-3.7-2.5-6l0,0l0,0l0,0l0,0c0-2.3,0.9-4.4,2.5-6c0,0,0,0,0.1-0.1C4.4,6,6.5,5,8.8,5
		c0,0,0.1,0,0.1,0l0,0l0,0h0l4.4,0c0.7,0,1.3,0.6,1.3,1.3c0,0.7-0.6,1.3-1.3,1.3l-4.5,0c0,0-0.1,0-0.1,0c-1.6,0-3.1,0.7-4.2,1.8l0,0
		c-1.1,1.1-1.7,2.6-1.7,4.2l0,0l0,0l0,0l0,0c0,1.6,0.7,3.2,1.8,4.3c1.1,1.1,2.6,1.8,4.3,1.8l0,0l0,0l0,0l0,0c1.7,0,3.2-0.7,4.3-1.8
		c0.8-0.8,1.4-1.8,1.7-2.9l-6,0c-0.7,0-1.3-0.6-1.3-1.3c0-0.7,0.6-1.3,1.3-1.3H15c0.3-1.8,1.1-3.5,2.3-4.7c0,0,0,0,0.1-0.1
		C19,6,21.1,5,23.5,5l0,0l0,0l0,0l0,0c2.4,0,4.5,1,6.1,2.5l0,0c1.6,1.6,2.5,3.7,2.5,6l0,0l0,0l0,0l0,0c0,2.4-1,4.5-2.5,6
		C28,21.1,25.8,22,23.5,22l0,0l0,0c-0.9,0-1.8-0.1-2.6-0.4c-0.2,0-0.3-0.1-0.5-0.2C20.2,21.5,20,21.4,19.8,21.3L19.8,21.3L19.8,21.3
		L19.8,21.3L19.8,21.3z M49.1,19.6C49.1,19.6,49.1,19.6,49.1,19.6c1.7,0,3.2-0.7,4.2-1.8c1.1-1.1,1.7-2.5,1.8-4.1c0,0,0-0.1,0-0.1
		l0-12.5c0-0.7,0.6-1.3,1.3-1.3c0.7,0,1.3,0.6,1.3,1.3l0,12.6c0,0,0,0.1,0,0.2c0,2.3-1,4.4-2.5,5.9c-1.5,1.5-3.6,2.5-6,2.5
		c0,0-0.1,0-0.1,0l0,0l0,0l0,0h-7.3l0,0l0,0c0,0-0.1,0-0.1,0c-2.3,0-4.4-1-5.9-2.5l0,0c-1.5-1.5-2.5-3.6-2.5-5.9c0,0,0-0.1,0-0.1
		l0,0l0,0v0l0-12.5c0-0.7,0.6-1.3,1.3-1.3c0.7,0,1.3,0.5,1.3,1.3l0,12.6c0,0,0,0.1,0,0.1c0,1.6,0.7,3.1,1.8,4.1l0,0l0,0
		c1.1,1.1,2.5,1.7,4.2,1.8c0,0,0.1,0,0.1,0l0,0l0,0h1.2c-1.5-1.6-2.5-3.7-2.5-6l0,0l0,0l0,0l0,0c0-2.4,1-4.5,2.5-6
		c1.6-1.6,3.7-2.5,6.1-2.5l0,0l0,0c0.9,0,1.7,0.1,2.6,0.4c0,0,0,0,0.1,0c0.2,0,0.3,0.1,0.5,0.2c0.2,0.1,0.3,0.1,0.5,0.2l0,0l0,0l0,0
		c0.6,0.3,0.9,1.1,0.6,1.7c-0.3,0.6-1.1,0.9-1.7,0.6l0,0c-0.1,0-0.3-0.1-0.3-0.1C51.1,8.1,51,8,50.9,8h0c-0.6-0.2-1.2-0.3-1.8-0.3
		l0,0l0,0c-1.7,0-3.2,0.7-4.3,1.8c-1.1,1.1-1.8,2.6-1.8,4.3l0,0l0,0l0,0l0,0c0,1.6,0.7,3.2,1.8,4.3c1.1,1.1,2.5,1.7,4,1.8h0.3
		L49.1,19.6L49.1,19.6L49.1,19.6L49.1,19.6L49.1,19.6z M24,16.1c-1.4,0.3-2.8-0.5-3.1-1.9c-0.3-1.4,0.6-2.7,1.9-3
		c1.4-0.3,2.8,0.5,3.1,1.9C26.3,14.4,25.4,15.8,24,16.1L24,16.1z M49.7,16.1c-1.4,0.3-2.8-0.5-3.1-1.9c-0.3-1.4,0.6-2.7,1.9-3
		s2.8,0.5,3.1,1.9C51.9,14.4,51,15.8,49.7,16.1L49.7,16.1z"/>
	<path class="st0" d="M68,13.6c0,0,0,0.1,0,0.1c0,1.6,0.7,3,1.8,4.1c1.1,1.1,2.6,1.8,4.3,1.8l0,0l0,0l0,0l0,0c0.5,0,1.1-0.1,1.6-0.2
		c0.1,0,0.2,0,0.3-0.1c0.4-0.1,0.8-0.3,1.2-0.5l0,0l0-13c0-0.7,0.6-1.3,1.3-1.3c0.7,0,1.3,0.6,1.3,1.3l0,13.2
		c0.3,0.2,0.7,0.3,1.1,0.4c0.1,0,0.2,0,0.3,0.1c0.5,0.1,1.1,0.2,1.6,0.2l0,0l0,0l0,0l0,0c1.7,0,3.2-0.7,4.3-1.8
		c1.1-1.1,1.7-2.5,1.8-4.1c0,0,0-0.1,0-0.1l0-7.9c0-0.7,0.6-1.3,1.3-1.3c0.7,0,1.3,0.6,1.3,1.3l0,1.8l0,0c1.5-1.5,3.7-2.4,6-2.4l0,0
		l0,0l0,0l0,0c2.3,0,4.5,0.9,6,2.4l0-6.4c0-0.7,0.6-1.3,1.3-1.3c0.7,0,1.3,0.6,1.3,1.3l0,6.5c1.6-1.5,3.7-2.4,6-2.4l0,0l0,0l0,0l0,0
		c2.4,0,4.5,1,6.1,2.5l0,0c1.6,1.6,2.5,3.7,2.5,6l0,0l0,0l0,0l0,0c0,2.4-1,4.5-2.5,6c-1.6,1.6-3.7,2.5-6.1,2.5l0,0l0,0l0,0l0,0
		c-2.4,0-4.5-1-6.1-2.5c-1.3-1.3-2.2-2.9-2.4-4.8h-6.1c-0.7,0-1.3-0.5-1.3-1.3c0-0.7,0.6-1.3,1.3-1.3l5.9,0c-0.3-1.1-0.8-2.2-1.7-3
		l0,0l0,0c-1.1-1.1-2.6-1.8-4.3-1.8l0,0l0,0l0,0l0,0c-1.7,0-3.1,0.6-4.2,1.7c0,0,0,0,0,0c-1,1-1.7,2.4-1.8,3.9v0.3c0,0,0,0.1,0,0.1
		c0,1.6,0.7,3,1.7,4c0,0,0,0,0,0c1.1,1.1,2.6,1.8,4.3,1.8l0,0l0,0l0,0l5.1,0c0.7,0,1.3,0.5,1.3,1.3c0,0.7-0.6,1.3-1.3,1.3h-5.1l0,0
		l0,0l0,0c-2.4,0-4.5-1-6.1-2.5c0,0,0,0-0.1-0.1c-0.4-0.5-0.8-0.9-1.1-1.5c-0.3,0.5-0.8,1.1-1.2,1.6C87,21.1,84.9,22,82.5,22l0,0
		l0,0l0,0l0,0c-0.8,0-1.5-0.1-2.2-0.3c-0.1,0-0.2-0.1-0.3-0.1c-0.6-0.2-1.1-0.4-1.7-0.7c-0.6,0.3-1.1,0.5-1.7,0.7
		c-0.1,0-0.3,0.1-0.3,0.1c-0.7,0.2-1.4,0.3-2.2,0.3l0,0l0,0l0,0l0,0c-2.4,0-4.5-1-6.1-2.5s-2.5-3.6-2.5-5.9c0,0,0-0.1,0-0.2l0-7.8
		c0-0.7,0.6-1.3,1.3-1.3C67.5,4.4,68,5,68,5.7L68,13.6L68,13.6z M105.7,13.7c0,1.6,0.7,3,1.8,4.1c1.1,1.1,2.6,1.8,4.3,1.8l0,0l0,0
		l0,0l0,0c1.7,0,3.2-0.7,4.3-1.8c1.1-1.1,1.8-2.6,1.8-4.3l0,0l0,0l0,0l0,0c0-1.6-0.7-3.2-1.8-4.3l0,0l0,0c-1.1-1.1-2.6-1.8-4.3-1.8
		l0,0l0,0l0,0l0,0c-1.7,0-3.2,0.7-4.3,1.8l0,0l0,0c-1,1-1.7,2.4-1.8,3.9v0.3C105.8,13.6,105.8,13.7,105.7,13.7L105.7,13.7z
		 M112.3,16.1c-1.4,0.3-2.8-0.5-3.1-1.9c-0.3-1.4,0.6-2.7,1.9-3c1.4-0.3,2.8,0.5,3.1,1.9C114.6,14.4,113.7,15.8,112.3,16.1
		L112.3,16.1z"/>
	<g>
		<path class="st0" d="M3.5,38.8H1.7l0-6.8h1.7l0,1.2h0c0.2-0.4,0.5-0.8,0.8-1c0.4-0.2,0.8-0.3,1.3-0.3c1,0,1.7,0.4,1.9,1.3h0
			c0.5-0.8,1.2-1.3,2.2-1.3c0.2,0,0.3,0,0.5,0c0.2,0,0.3,0.1,0.6,0.2c0.2,0.1,0.4,0.2,0.6,0.4c0.2,0.2,0.3,0.4,0.4,0.7
			c0.1,0.3,0.2,0.7,0.2,1.1l0,4.5h-1.8l0-3.8c0-0.2,0-0.3,0-0.4c0-0.1,0-0.3,0-0.4c0-0.2-0.1-0.3-0.2-0.4c-0.1-0.1-0.2-0.2-0.3-0.3
			c-0.1-0.1-0.3-0.1-0.5-0.1c-0.4,0-0.7,0.2-1,0.5c-0.3,0.3-0.4,0.7-0.4,1.3l0,3.8H6L6,35c0-0.3,0-0.6,0-0.8c0-0.2-0.1-0.4-0.3-0.6
			c-0.2-0.2-0.4-0.3-0.7-0.3c-0.4,0-0.7,0.1-1,0.4c-0.3,0.3-0.4,0.7-0.4,1.3C3.5,35.1,3.5,38.8,3.5,38.8z"/>
		<path class="st0" d="M20.8,33.7l0-1.4c0.8-0.3,1.6-0.5,2.5-0.5c0.6,0,1,0,1.4,0.2c0.4,0.1,0.7,0.3,0.9,0.5
			c0.2,0.2,0.4,0.4,0.5,0.6c0.1,0.3,0.2,0.5,0.2,0.7c0,0.2,0,0.4,0,0.7l0,4.3h-1.8l0-1h0c-0.4,0.8-1.1,1.1-2.2,1.1
			c-0.8,0-1.4-0.2-1.8-0.6c-0.4-0.4-0.6-0.9-0.6-1.5c0-0.3,0-0.5,0.1-0.8c0.1-0.3,0.3-0.5,0.5-0.7c0.2-0.3,0.6-0.4,1.1-0.6
			c0.5-0.1,1.1-0.2,1.7-0.2c0.1,0,0.3,0,0.5,0c0.2,0,0.4,0,0.5,0h0.2v-0.3c0-0.4-0.2-0.6-0.5-0.8c-0.3-0.2-0.7-0.3-1.1-0.3
			C22.2,33.1,21.5,33.4,20.8,33.7z M24.6,35.7h-0.3c-0.3,0-0.6,0-0.8,0c-0.2,0-0.5,0-0.8,0.1c-0.3,0-0.5,0.2-0.6,0.3
			c-0.1,0.2-0.2,0.4-0.2,0.6c0,0.3,0.1,0.5,0.3,0.6c0.2,0.2,0.5,0.3,0.8,0.3c0.5,0,0.8-0.1,1.1-0.4c0.3-0.3,0.5-0.8,0.5-1.4
			L24.6,35.7L24.6,35.7z"/>
		<path class="st0" d="M34.7,32h1.7v1.5h0c0.1-0.5,0.3-0.8,0.6-1.1c0.3-0.3,0.7-0.5,1.2-0.5c0.2,0,0.3,0,0.6,0.1l-0.1,1.3
			c-0.3,0-0.5,0-0.6,0c-0.2,0-0.4,0-0.6,0.1c-0.2,0.1-0.3,0.2-0.6,0.3c-0.2,0.2-0.3,0.4-0.4,0.7c-0.1,0.3-0.2,0.7-0.2,1.2l0,3.3
			h-1.8L34.7,32L34.7,32z"/>
		<path class="st0" d="M46.6,28.9h1.8l0,5.9h0.1l2.2-2.8h2.1l-2.5,3.1l2.8,3.7h-2.2l-2.2-3.5h-0.1l0,3.5h-1.8L46.6,28.9z"/>
		<path class="st0" d="M66.8,36h-4.7c0,0.5,0.2,0.9,0.6,1.2c0.3,0.3,0.8,0.5,1.5,0.5c0.7,0,1.4-0.2,2.2-0.5l0,1.3
			c-0.8,0.3-1.5,0.4-2.4,0.4c-1.1,0-2-0.3-2.7-0.9c-0.7-0.6-1-1.5-1-2.6c0-1.1,0.3-1.9,1-2.6c0.6-0.6,1.4-1,2.4-1
			c0.4,0,0.8,0,1.1,0.2c0.3,0.1,0.6,0.3,0.8,0.4s0.4,0.4,0.6,0.6c0.2,0.3,0.3,0.5,0.3,0.7c0.1,0.2,0.1,0.5,0.2,0.7
			c0,0.3,0.1,0.5,0.1,0.6c0,0.1,0,0.3,0,0.4L66.8,36L66.8,36z M62.1,34.7H65c0-0.5-0.1-0.9-0.4-1.2c-0.3-0.3-0.6-0.4-1-0.4
			s-0.7,0.2-1,0.5C62.3,33.9,62.1,34.3,62.1,34.7z"/>
		<path class="st0" d="M75.4,33.3h-1.4l0-1.3h1.4l0-1.3l1.8-0.5l0,1.9h1.6v1.3h-1.6l0,3.1c0,0.2,0,0.3,0,0.5c0,0.1,0,0.2,0.1,0.3
			c0,0.1,0.1,0.3,0.3,0.3c0.1,0,0.3,0.1,0.5,0.1c0.2,0,0.5,0,0.7-0.1v1.3c-0.5,0.1-0.9,0.2-1.4,0.2c-1.4,0-2-0.7-2-2.1L75.4,33.3z"
			/>
		<path class="st0" d="M88.6,29.1l0,1.9h-1.9v-1.9H88.6z M86.7,32h1.8l0,6.8h-1.8L86.7,32z"/>
		<path class="st0" d="M98.7,38.8h-1.8l0-6.8h1.7v1.1h0c0.5-0.8,1.2-1.2,2.2-1.2c0.7,0,1.3,0.2,1.8,0.6s0.7,0.9,0.7,1.6l0,4.8h-1.8
			l0-4.1c0-0.4-0.1-0.7-0.3-1c-0.2-0.3-0.5-0.4-0.9-0.4c-0.5,0-0.9,0.2-1.2,0.6c-0.3,0.4-0.4,0.8-0.4,1.2L98.7,38.8L98.7,38.8z"/>
		<path class="st0" d="M112,41.3l0.1-1.5c0.8,0.4,1.4,0.5,2.1,0.5c0.6,0,1.1-0.2,1.5-0.5s0.5-0.8,0.5-1.3v-0.9h0
			c0,0.1-0.1,0.2-0.2,0.3c-0.1,0.1-0.2,0.3-0.3,0.4c-0.2,0.2-0.4,0.3-0.6,0.4c-0.3,0.1-0.6,0.1-0.9,0.1c-0.5,0-0.9-0.1-1.3-0.3
			c-0.4-0.2-0.7-0.5-0.9-0.8c-0.2-0.3-0.4-0.7-0.5-1.1c-0.1-0.4-0.2-0.8-0.2-1.2c0-1.1,0.3-1.9,0.8-2.6c0.5-0.6,1.2-1,2-1
			c1.1,0,1.8,0.4,2.2,1.3h0V32h1.7l0,6.3c0,0.2,0,0.3,0,0.5c0,0.1,0,0.3-0.1,0.6c0,0.3-0.1,0.5-0.2,0.7c-0.1,0.2-0.2,0.4-0.4,0.6
			c-0.2,0.3-0.4,0.4-0.6,0.6c-0.3,0.2-0.6,0.3-0.9,0.4c-0.4,0.1-0.8,0.2-1.3,0.2C113.7,41.8,112.9,41.6,112,41.3z M114.7,33.4
			c-0.5,0-0.8,0.2-1.1,0.6c-0.3,0.4-0.4,0.8-0.4,1.4c0,0.4,0,0.8,0.2,1.1c0.1,0.3,0.3,0.5,0.4,0.6c0.2,0.1,0.3,0.2,0.5,0.3
			c0.2,0,0.3,0.1,0.5,0.1c0.4,0,0.8-0.2,1.1-0.5c0.3-0.4,0.5-0.9,0.5-1.6c0-0.6-0.2-1-0.5-1.3C115.6,33.6,115.1,33.4,114.7,33.4z"/>
	</g>
</g>
</svg>
