<?xml version="1.0" encoding="utf-8"?>
<!-- Generator: Adobe Illustrator 21.1.0, SVG Export Plug-In . SVG Version: 6.00 Build 0)  -->
<svg version="1.1" id="Слой_27" xmlns="http://www.w3.org/2000/svg" xmlns:xlink="http://www.w3.org/1999/xlink" x="0px"
	 y="0px" viewBox="0 0 500 270" style="enable-background:new 0 0 500 270;" xml:space="preserve">
<style type="text/css">
	.st0{fill:#4F9799;}
</style>
<g>
	<path class="st0" d="M490,266v-85.7L240,94.1V59l-20-8.3V23.3L170,0l-50,32.1v26.4L100,70v33.3l-90,42.9V266H0v4h10h90h140h250h10
		v-4H490z M119.5,248.7V266h-9v-16.7L119.5,248.7z M120.5,248.7l9-0.6V266h-9V248.7z M130.5,248l9-0.6V266h-9V248z M140.5,247.4
		l9-0.6V266h-9V247.4z M150.5,246.8l9-0.6V266h-9V246.8z M160.5,246.1l9-0.6V266h-9V246.1z M170.5,245.5l9,0.4V266h-9V245.5z
		 M180.5,246l9,0.4V266h-9V246z M190.5,246.5l9,0.4V266h-9V246.5z M200.5,246.9l9,0.4V266h-9V246.9z M210.5,247.4l9,0.4V266h-9
		V247.4z M220.5,247.9l9,0.4V266h-9V247.9z M170,244.5l-66,4.2v-3l66-4.2l66,3.1v3L170,244.5z M104,90.5l65.9-33.1l66.1,24v3.2
		l-65.9-24L104,93.8V90.5z M129.5,57.7v18.8l-9,4.5V62.9L129.5,57.7z M220.5,74.7V55.2l9,3.7v19L220.5,74.7z M219.5,54.8v19.5
		l-9-3.3v-20L219.5,54.8z M209.5,70.7l-9-3.3V46.9l9,3.7V70.7z M199.5,67.1l-9-3.3v-21l9,3.7V67.1z M189.5,63.4l-9-3.3V38.7l9,3.7
		V63.4z M179.5,59.8l-9-3.3v-22l9,3.7V59.8z M169.5,56.5l-9,4.5V40l9-5.1V56.5z M159.5,61.5l-9,4.5V45.7l9-5.1V61.5z M149.5,66.5
		l-9,4.5V51.5l9-5.1V66.5z M139.5,71.5l-9,4.5V57.2l9-5.1V71.5z M119.5,81.6l-9,4.5V68.6l9-5.1V81.6z M220.5,221.8v-16l9,1.1v15.6
		L220.5,221.8z M219.5,221.8l-9-0.8v-16.4l9,1.1V221.8z M209.5,220.9l-9-0.8v-16.8l9,1.1V220.9z M199.5,220l-9-0.8v-17.2l9,1.1V220z
		 M189.5,219.2l-9-0.8v-17.6l9,1.1V219.2z M179.5,218.3l-9-0.8v-18l9,1.1V218.3z M169.5,217.5l-9,1.1v-17.4l9-1.6V217.5z
		 M159.5,218.7l-9,1.1v-16.9l9-1.6V218.7z M149.5,219.9l-9,1.1v-16.3l9-1.6V219.9z M139.5,221.1l-9,1.1v-15.8l9-1.6V221.1z
		 M129.5,222.3l-9,1.1v-15.2l9-1.6V222.3z M119.5,223.5l-9,1.1v-14.7l9-1.6V223.5z M109.5,224.7l-5.5,0.7V211l5.5-1V224.7z
		 M220.5,158.8v-15.9l9,2.2v15.5L220.5,158.8z M219.5,158.6l-9-1.8v-16.3l9,2.2V158.6z M209.5,156.6l-9-1.8V138l9,2.2V156.6z
		 M199.5,154.5l-9-1.8v-17.1l9,2.2V154.5z M189.5,152.4l-9-1.8v-17.5l9,2.2V152.4z M179.5,150.4l-9-1.8l0,0l0,0v-17.9l9,2.2V150.4z
		 M169.5,148.5l-9,2.6v-17.2l9-3V148.5z M159.5,151.4l-9,2.6v-16.7l9-3V151.4z M149.5,154.2l-9,2.6v-16.1l9-3V154.2z M139.5,157
		l-9,2.6V144l9-3V157z M129.5,159.9l-9,2.6v-15.1l9-3V159.9z M119.5,162.7l-9,2.6v-14.5l9-3V162.7z M109.5,165.5l-5.5,1.6V153
		l5.5-1.9V165.5z M220.5,179.8v-15.9l9,1.8v15.6L220.5,179.8z M219.5,179.7l-9-1.5v-16.3l9,1.8V179.7z M209.5,178l-9-1.5v-16.7
		l9,1.8V178z M199.5,176.3l-9-1.5v-17.1l9,1.8V176.3z M189.5,174.7l-9-1.5v-17.5l9,1.8V174.7z M179.5,173l-9-1.5v-17.9l9,1.8V173z
		 M169.5,171.5l-9,2.1v-17.3l9-2.5V171.5z M159.5,173.8l-9,2.1v-16.8l9-2.5V173.8z M149.5,176.1l-9,2.1V162l9-2.5V176.1z
		 M139.5,178.4l-9,2.1v-15.7l9-2.5V178.4z M129.5,180.7l-9,2.1v-15.1l9-2.5V180.7z M119.5,183l-9,2.1v-14.6l9-2.5V183z M109.5,185.3
		l-5.5,1.3v-14.2l5.5-1.6V185.3z M104,191.7l5.5-1.3V205l-5.5,1V191.7z M110.5,190.2l9-2.1v15.1l-9,1.6V190.2z M120.5,187.9l9-2.1
		v15.7l-9,1.6V187.9z M130.5,185.6l9-2.1v16.2l-9,1.6V185.6z M140.5,183.3l9-2.1V198l-9,1.6V183.3z M150.5,181l9-2.1v17.3l-9,1.6
		V181z M160.5,178.7l9-2.1v17.9l-9,1.6V178.7z M170.5,176.6l9,1.5v17.6l-9-1.1V176.6z M180.5,178.3l9,1.5v17.2l-9-1.1V178.3z
		 M190.5,179.9l9,1.5v16.8l-9-1.1V179.9z M200.5,181.6l9,1.5v16.4l-9-1.1V181.6z M210.5,183.2l9,1.5v16l-9-1.1V183.2z M220.5,184.9
		l9,1.5V202l-9-1.1V184.9z M230.5,186.5l5.5,0.9v15.3l-5.5-0.7V186.5z M170.1,175.5L170.1,175.5L104,190.6v-3.1l66-15.1l66,10.9v3
		L170.1,175.5z M230.5,181.5V166l5.5,1.1v15.3L230.5,181.5z M170.2,152.6l-0.1,0L104,171.3v-3.1l65.9-18.7L236,163v3.1L170.2,152.6z
		 M230.5,160.9v-15.5l5.5,1.3V162L230.5,160.9z M170.2,129.6l-0.1,0L104,151.9v-3.2l65.9-22.3l66.1,16.2v3.1L170.2,129.6z
		 M104,133.6l5.5-2.2v14.4l-5.5,1.9V133.6z M220.5,137.8V122l9,2.6V140L220.5,137.8z M219.5,137.5l-9-2.2v-16.2l9,2.6V137.5z
		 M209.5,135.1l-9-2.2v-16.6l9,2.6V135.1z M199.5,132.6l-9-2.2v-17l9,2.6V132.6z M189.5,130.2l-9-2.2v-17.4l9,2.6V130.2z
		 M179.5,127.8l-8.9-2.2l-0.1,0v-17.8l9,2.6V127.8z M169.5,125.5l-9,3v-17.2l9-3.5V125.5z M159.5,128.9l-9,3v-16.6l9-3.5V128.9z
		 M149.5,132.3l-9,3v-16.1l9-3.5V132.3z M139.5,135.7l-9,3v-15.5l9-3.5V135.7z M129.5,139.1l-9,3v-15l9-3.5V139.1z M119.5,142.4
		l-9,3v-14.4l9-3.5V142.4z M230.5,140.2v-15.4l5.5,1.6v15.2L230.5,140.2z M236,125.3l-65.8-18.7l-0.2,0l-66.1,26v-3.2l65.9-25.9
		l66.1,18.8V125.3z M220.5,116.8V101l9,2.9v15.4L220.5,116.8z M219.5,116.5l-9-2.6V97.8l9,2.9V116.5z M209.5,113.6l-9-2.6V94.5
		l9,2.9V113.6z M199.5,110.8l-9-2.6v-17l9,2.9V110.8z M189.5,107.9l-9-2.6V88l9,2.9V107.9z M179.5,105.1l-8.8-2.5l-0.2-0.1V84.8
		l9,2.9V105.1z M169.5,102.5l-9,3.5V89l9-4V102.5z M159.5,106.4l-9,3.5V93.5l9-4V106.4z M149.5,110.4l-9,3.5v-16l9-4V110.4z
		 M139.5,114.3l-9,3.5v-15.4l9-4V114.3z M129.5,118.2l-9,3.5v-14.9l9-4V118.2z M119.5,122.2l-9,3.5v-14.3l9-4V122.2z M109.5,126.1
		l-5.5,2.2v-14l5.5-2.5V126.1z M104,230.4l5.5-0.7v14.7l-5.5,0.4V230.4z M110.5,229.6l9-1.1v15.2l-9,0.6V229.6z M120.5,228.4l9-1.1
		v15.8l-9,0.6V228.4z M130.5,227.2l9-1.1v16.3l-9,0.6V227.2z M140.5,226l9-1.1v16.9l-9,0.6V226z M150.5,224.8l9-1.1v17.4l-9,0.6
		V224.8z M160.5,223.6l9-1.1v17.9l-9,0.6V223.6z M170.5,222.6l9,0.8v17.6l-9-0.4V222.6z M180.5,223.4l9,0.8v17.2l-9-0.4V223.4z
		 M190.5,224.3l9,0.8v16.8l-9-0.4V224.3z M200.5,225.1l9,0.8v16.4l-9-0.4V225.1z M210.5,226l9,0.8v16l-9-0.4V226z M220.5,226.9
		l9,0.8v15.6l-9-0.4V226.9z M230.5,227.7l5.5,0.5v15.4l-5.5-0.3V227.7z M236,227.2l-65.9-5.7l-0.1,0l-66,7.9v-3l66-7.9l66,5.7V227.2
		z M236,223.2l-5.5-0.5v-15.6l5.5,0.7V223.2z M236,206.8l-65.9-8.3l-0.1,0L104,210v-3l66-11.5l66,8.3V206.8z M236,121.2l-5.5-1.6
		v-15.4l5.5,1.8V121.2z M236,105l-65.7-21.3l-0.2-0.1L104,113.2v-3.3l65.9-29.5l66.1,21.4V105z M119.5,87.2v14.7l-9,4V91.7
		L119.5,87.2z M220.5,95.7V80l9,3.3v15.4L220.5,95.7z M219.5,95.4l-9-2.9V76.4l9,3.3V95.4z M209.5,92.2l-9-2.9V72.8l9,3.3V92.2z
		 M199.5,88.9l-9-2.9V69.1l9,3.3V88.9z M189.5,85.7l-9-2.9V65.5l9,3.3V85.7z M179.5,82.5l-9-2.9V61.8l9,3.3V82.5z M169.5,79.5l-9,4
		V66.6l9-4.5V79.5z M159.5,84l-9,4V71.6l9-4.5V84z M149.5,88.4l-9,4V76.6l9-4.5V88.4z M139.5,92.9l-9,4V81.6l9-4.5V92.9z
		 M129.5,97.4l-9,4V86.7l9-4.5V97.4z M230.5,99V83.7l5.5,2v15.1L230.5,99z M109.5,92.2v14.2l-5.5,2.5V95L109.5,92.2z M236,80.4
		l-5.5-2v-19l5.5,2.3V80.4z M124,34.3l46.3-29.8L216,25.8V49l-46-19l-46,26.3V34.3z M109.5,69.2v17.4l-5.5,2.8v-17L109.5,69.2z
		 M14,266V148.7l86-41V266H14z M104,249.7l5.5-0.4V266H104V249.7z M230.5,266v-17.7l5.5,0.3V266H230.5z M240,266V98.4l246,84.8V266
		H240z"/>
	<polygon class="st0" points="54,180.3 55,180.1 55,171.1 54,171.4 	"/>
	<polygon class="st0" points="29,233.3 30,233.2 30,223.8 29,224 	"/>
	<polygon class="st0" points="34,232.6 35,232.5 35,222.9 34,223.1 	"/>
	<polygon class="st0" points="24,233.9 25,233.8 25,224.6 24,224.8 	"/>
	<polygon class="st0" points="54,230.1 55,230 55,219.5 54,219.7 	"/>
	<polygon class="st0" points="24,221.8 25,221.6 25,213.7 24,213.9 	"/>
	<polygon class="st0" points="59,229.5 60,229.4 60,218.7 59,218.9 	"/>
	<polygon class="st0" points="49,230.8 50,230.6 50,220.4 49,220.6 	"/>
	<polygon class="st0" points="44,231.4 45,231.3 45,221.2 44,221.4 	"/>
	<polygon class="st0" points="39,232 40,231.9 40,222.1 39,222.3 	"/>
	<polygon class="st0" points="59,178.9 60,178.6 60,169.4 59,169.7 	"/>
	<polygon class="st0" points="64,228.9 65,228.7 65,217.8 64,218 	"/>
	<polygon class="st0" points="24,210.9 25,210.7 25,202.8 24,203 	"/>
	<polygon class="st0" points="49,181.8 50,181.5 50,172.7 49,173 	"/>
	<polygon class="st0" points="44,183.2 45,183 45,174.4 44,174.7 	"/>
	<polygon class="st0" points="24,200 25,199.7 25,191.9 24,192.2 	"/>
	<polygon class="st0" points="34,186.1 35,185.9 35,177.7 34,178 	"/>
	<polygon class="st0" points="24,189 25,188.8 25,181 24,181.3 	"/>
	<polygon class="st0" points="29,187.6 30,187.3 30,179.3 29,179.6 	"/>
	<polygon class="st0" points="39,184.7 40,184.4 40,176 39,176.3 	"/>
	<polygon class="st0" points="54,168.2 55,167.9 55,159 54,159.3 	"/>
	<polygon class="st0" points="74,161.6 75,161.3 75,151.6 74,151.9 	"/>
	<polygon class="st0" points="69,228.2 70,228.1 70,217 69,217.1 	"/>
	<polygon class="st0" points="69,163.3 70,163 70,153.4 69,153.8 	"/>
	<polygon class="st0" points="59,166.6 60,166.3 60,157.1 59,157.5 	"/>
	<polygon class="st0" points="44,171.5 45,171.2 45,162.7 44,163 	"/>
	<polygon class="st0" points="29,176.5 30,176.1 30,168.2 29,168.6 	"/>
	<polygon class="st0" points="34,174.8 35,174.5 35,166.3 34,166.7 	"/>
	<polygon class="st0" points="24,178.1 25,177.8 25,170 24,170.4 	"/>
	<polygon class="st0" points="64,164.9 65,164.6 65,155.3 64,155.6 	"/>
	<polygon class="st0" points="79,227 80,226.8 80,215.3 79,215.4 	"/>
	<polygon class="st0" points="84,226.3 85,226.2 85,214.4 84,214.6 	"/>
	<polygon class="st0" points="74,227.6 75,227.5 75,216.1 74,216.3 	"/>
	<polygon class="st0" points="79,160 80,159.7 80,149.7 79,150.1 	"/>
	<polygon class="st0" points="84,211.5 85,211.4 85,201.1 84,201.3 	"/>
	<polygon class="st0" points="84,158.4 85,158 85,147.9 84,148.2 	"/>
	<polygon class="st0" points="84,171.7 85,171.4 85,161.2 84,161.5 	"/>
	<polygon class="st0" points="84,185 85,184.7 85,174.5 84,174.8 	"/>
	<polygon class="st0" points="84,198.3 85,198 85,187.8 84,188 	"/>
	<polygon class="st0" points="39,173.2 40,172.9 40,164.5 39,164.9 	"/>
	<polygon class="st0" points="74,187.5 75,187.2 75,177.4 74,177.7 	"/>
	<polygon class="st0" points="69,188.7 70,188.5 70,178.8 69,179.1 	"/>
	<polygon class="st0" points="74,200.4 75,200.1 75,190.3 74,190.5 	"/>
	<polygon class="st0" points="64,190 65,189.7 65,180.3 64,180.6 	"/>
	<polygon class="st0" points="64,202.5 65,202.2 65,192.8 64,193 	"/>
	<polygon class="st0" points="69,201.4 70,201.2 70,191.5 69,191.8 	"/>
	<polygon class="st0" points="49,193.7 50,193.5 50,184.6 49,184.9 	"/>
	<polygon class="st0" points="44,195 45,194.7 45,186.1 44,186.4 	"/>
	<polygon class="st0" points="39,196.2 40,196 40,187.5 39,187.8 	"/>
	<polygon class="st0" points="59,191.2 60,191 60,181.7 59,182 	"/>
	<polygon class="st0" points="54,192.5 55,192.2 55,183.2 54,183.5 	"/>
	<polygon class="st0" points="59,203.5 60,203.3 60,194 59,194.3 	"/>
	<polygon class="st0" points="39,207.7 40,207.5 40,199 39,199.3 	"/>
	<polygon class="st0" points="89,237.7 90,237.6 90,228.6 89,228.7 	"/>
	<polygon class="st0" points="94,250.9 95,250.9 95,240.1 94,240.2 	"/>
	<polygon class="st0" points="94,237.2 95,237.1 95,228 94,228.1 	"/>
	<polygon class="st0" points="49,205.6 50,205.4 50,196.5 49,196.8 	"/>
	<polygon class="st0" points="54,204.6 55,204.3 55,195.3 54,195.5 	"/>
	<polygon class="st0" points="34,208.8 35,208.6 35,200.3 34,200.5 	"/>
	<polygon class="st0" points="44,206.7 45,206.5 45,197.8 44,198 	"/>
	<polygon class="st0" points="49,217.5 50,217.3 50,208.5 49,208.7 	"/>
	<polygon class="st0" points="74,213.3 75,213.1 75,203.2 74,203.4 	"/>
	<polygon class="st0" points="79,212.4 80,212.2 80,202.2 79,202.4 	"/>
	<polygon class="st0" points="64,215 65,214.8 65,205.3 64,205.5 	"/>
	<polygon class="st0" points="79,199.3 80,199.1 80,189 79,189.3 	"/>
	<polygon class="st0" points="69,214.1 70,213.9 70,204.3 69,204.5 	"/>
	<polygon class="st0" points="69,176 70,175.7 70,166.1 69,166.5 	"/>
	<polygon class="st0" points="74,174.6 75,174.3 75,164.5 74,164.8 	"/>
	<polygon class="st0" points="34,197.5 35,197.2 35,189 34,189.3 	"/>
	<polygon class="st0" points="79,173.1 80,172.8 80,162.8 79,163.2 	"/>
	<polygon class="st0" points="79,186.2 80,186 80,175.9 79,176.2 	"/>
	<polygon class="st0" points="29,220.9 30,220.8 30,212.7 29,212.9 	"/>
	<polygon class="st0" points="34,220.1 35,219.9 35,211.6 34,211.8 	"/>
	<polygon class="st0" points="29,209.8 30,209.6 30,201.5 29,201.8 	"/>
	<polygon class="st0" points="29,198.7 30,198.5 30,190.4 29,190.7 	"/>
	<polygon class="st0" points="59,215.8 60,215.6 60,206.4 59,206.6 	"/>
	<polygon class="st0" points="54,216.7 55,216.5 55,207.4 54,207.6 	"/>
	<polygon class="st0" points="64,177.4 65,177.2 65,167.8 64,168.1 	"/>
	<polygon class="st0" points="44,218.4 45,218.2 45,209.5 44,209.7 	"/>
	<polygon class="st0" points="39,219.2 40,219 40,210.6 39,210.8 	"/>
	<polygon class="st0" points="49,169.9 50,169.6 50,160.8 49,161.2 	"/>
	<polygon class="st0" points="84,251.4 85,251.4 85,241.1 84,241.1 	"/>
	<polygon class="st0" points="19,179.8 20,179.4 20,171.9 19,172.3 	"/>
	<polygon class="st0" points="64,252.4 65,252.4 65,242.9 64,243 	"/>
	<polygon class="st0" points="69,252.2 70,252.1 70,242.4 69,242.5 	"/>
	<polygon class="st0" points="94,168.8 95,168.5 95,157.9 94,158.2 	"/>
	<polygon class="st0" points="89,251.2 90,251.1 90,240.6 89,240.7 	"/>
	<polygon class="st0" points="94,196.1 95,195.9 95,185.3 94,185.5 	"/>
	<polygon class="st0" points="94,182.5 95,182.2 95,171.6 94,171.9 	"/>
	<polygon class="st0" points="94,209.8 95,209.7 95,199 94,199.2 	"/>
	<polygon class="st0" points="94,225.1 95,224.9 95,212.7 94,212.9 	"/>
	<polygon class="st0" points="74,251.9 75,251.9 75,242 74,242.1 	"/>
	<polygon class="st0" points="34,254 35,253.9 35,245.6 34,245.7 	"/>
	<polygon class="st0" points="29,254.2 30,254.2 30,246.1 29,246.1 	"/>
	<polygon class="st0" points="24,254.5 25,254.4 25,246.5 24,246.6 	"/>
	<polygon class="st0" points="19,254.7 20,254.7 20,247 19,247.1 	"/>
	<polygon class="st0" points="44,253.5 45,253.4 45,244.7 44,244.8 	"/>
	<polygon class="st0" points="49,253.2 50,253.2 50,244.2 49,244.3 	"/>
	<polygon class="st0" points="54,253 55,252.9 55,243.8 54,243.9 	"/>
	<polygon class="st0" points="39,253.7 40,253.7 40,245.1 39,245.2 	"/>
	<polygon class="st0" points="59,252.7 60,252.6 60,243.3 59,243.4 	"/>
	<polygon class="st0" points="94,155.1 95,154.7 95,144.2 94,144.6 	"/>
	<polygon class="st0" points="19,169.1 20,168.7 20,161.2 19,161.6 	"/>
	<polygon class="st0" points="94,130.9 94,141.4 95,141 95,130.5 	"/>
	<polygon class="st0" points="79,251.7 80,251.6 80,241.5 79,241.6 	"/>
	<polygon class="st0" points="54,240.9 55,240.8 55,233 54,233.1 	"/>
	<polygon class="st0" points="39,242.2 40,242.1 40,234.9 39,235 	"/>
	<polygon class="st0" points="44,241.8 45,241.7 45,234.3 44,234.4 	"/>
	<polygon class="st0" points="59,240.4 60,240.3 60,232.4 59,232.5 	"/>
	<polygon class="st0" points="49,241.3 50,241.2 50,233.7 49,233.8 	"/>
	<polygon class="st0" points="79,238.6 80,238.5 80,229.9 79,230 	"/>
	<polygon class="st0" points="74,239 75,238.9 75,230.5 74,230.6 	"/>
	<polygon class="st0" points="64,239.9 65,239.9 65,231.8 64,231.9 	"/>
	<polygon class="st0" points="69,239.5 70,239.4 70,231.1 69,231.3 	"/>
	<polygon class="st0" points="19,244 20,243.9 20,237.4 19,237.6 	"/>
	<polygon class="st0" points="19,201.2 20,201 20,193.3 19,193.6 	"/>
	<polygon class="st0" points="19,211.9 20,211.7 20,204 19,204.3 	"/>
	<polygon class="st0" points="34,242.7 35,242.6 35,235.5 34,235.7 	"/>
	<polygon class="st0" points="19,190.5 20,190.2 20,182.6 19,182.9 	"/>
	<polygon class="st0" points="19,222.6 20,222.5 20,214.8 19,215 	"/>
	<polygon class="st0" points="29,243.1 30,243 30,236.2 29,236.3 	"/>
	<polygon class="st0" points="19,234.5 20,234.4 20,225.5 19,225.7 	"/>
	<polygon class="st0" points="24,243.6 25,243.5 25,236.8 24,236.9 	"/>
	<polygon class="st0" points="84,238.1 85,238 85,229.2 84,229.4 	"/>
	<polygon class="st0" points="59,154.3 60,153.9 60,144.8 59,145.2 	"/>
	<polygon class="st0" points="69,150.6 70,150.2 70,140.7 69,141.1 	"/>
	<polygon class="st0" points="49,158 50,157.6 50,148.9 49,149.3 	"/>
	<polygon class="st0" points="24,167.2 25,166.8 25,159.1 24,159.5 	"/>
	<polygon class="st0" points="89,225.7 90,225.6 90,213.6 89,213.7 	"/>
	<polygon class="st0" points="54,156.1 55,155.8 55,146.8 54,147.3 	"/>
	<polygon class="st0" points="44,159.8 45,159.5 45,150.9 44,151.3 	"/>
	<polygon class="st0" points="34,163.5 35,163.1 35,155 34,155.4 	"/>
	<polygon class="st0" points="29,165.4 30,165 30,157.1 29,157.5 	"/>
	<polygon class="st0" points="39,161.7 40,161.3 40,153 39,153.4 	"/>
	<polygon class="st0" points="64,152.4 65,152.1 65,142.8 64,143.2 	"/>
	<polygon class="st0" points="89,183.7 90,183.5 90,173 89,173.3 	"/>
	<polygon class="st0" points="89,197.2 90,197 90,186.5 89,186.8 	"/>
	<polygon class="st0" points="89,210.7 90,210.5 90,200.1 89,200.3 	"/>
	<polygon class="st0" points="89,170.2 90,169.9 90,159.5 89,159.9 	"/>
	<polygon class="st0" points="79,146.9 80,146.5 80,136.6 79,137 	"/>
	<polygon class="st0" points="84,145 85,144.7 85,134.6 84,135 	"/>
	<polygon class="st0" points="89,156.7 90,156.4 90,146 89,146.4 	"/>
	<polygon class="st0" points="74,148.7 75,148.4 75,138.7 74,139.1 	"/>
	<polygon class="st0" points="89,143.2 90,142.8 90,132.5 89,132.9 	"/>
	<polygon class="st0" points="462,203.2 463,203.4 463,198.7 462,198.4 	"/>
	<polygon class="st0" points="457,202.1 458,202.3 458,197.4 457,197.2 	"/>
	<polygon class="st0" points="467,204.3 468,204.6 468,199.9 467,199.7 	"/>
	<polygon class="st0" points="442,198.7 443,198.9 443,193.6 442,193.3 	"/>
	<polygon class="st0" points="452,200.9 453,201.2 453,196.1 452,195.9 	"/>
	<polygon class="st0" points="472,205.5 473,205.7 473,201.2 472,201 	"/>
	<polygon class="st0" points="447,199.8 448,200 448,194.9 447,194.6 	"/>
	<polygon class="st0" points="467,235.3 468,235.4 468,230.8 467,230.6 	"/>
	<polygon class="st0" points="452,233.6 453,233.7 453,228.6 452,228.4 	"/>
	<polygon class="st0" points="437,197.5 438,197.8 438,192.3 437,192.1 	"/>
	<polygon class="st0" points="457,234.2 458,234.3 458,229.3 457,229.2 	"/>
	<polygon class="st0" points="462,234.7 463,234.9 463,230 462,229.9 	"/>
	<polygon class="st0" points="472,220.7 473,220.9 473,216.3 472,216.1 	"/>
	<polygon class="st0" points="472,228.3 473,228.4 473,223.9 472,223.7 	"/>
	<polygon class="st0" points="472,235.9 473,236 473,231.5 472,231.3 	"/>
	<polygon class="st0" points="472,213.1 473,213.3 473,208.8 472,208.6 	"/>
	<polygon class="st0" points="352,178.3 353,178.5 353,170.7 352,170.5 	"/>
	<polygon class="st0" points="372,182.8 373,183 373,175.8 372,175.6 	"/>
	<polygon class="st0" points="382,185.1 383,185.3 383,178.4 382,178.1 	"/>
	<polygon class="st0" points="387,186.2 388,186.4 388,179.6 387,179.4 	"/>
	<polygon class="st0" points="367,181.7 368,181.9 368,174.6 367,174.3 	"/>
	<polygon class="st0" points="357,179.4 358,179.6 358,172 357,171.8 	"/>
	<polygon class="st0" points="392,187.4 393,187.6 393,180.9 392,180.6 	"/>
	<polygon class="st0" points="362,180.6 363,180.8 363,173.3 362,173 	"/>
	<polygon class="st0" points="417,193 418,193.2 418,187.3 417,187 	"/>
	<polygon class="st0" points="432,196.4 433,196.6 433,191.1 432,190.8 	"/>
	<polygon class="st0" points="422,194.1 423,194.4 423,188.5 422,188.3 	"/>
	<polygon class="st0" points="427,195.3 428,195.5 428,189.8 427,189.5 	"/>
	<polygon class="st0" points="402,189.6 403,189.8 403,183.4 402,183.2 	"/>
	<polygon class="st0" points="397,188.5 398,188.7 398,182.2 397,181.9 	"/>
	<polygon class="st0" points="412,191.9 413,192.1 413,186 412,185.7 	"/>
	<polygon class="st0" points="407,190.8 408,191 408,184.7 407,184.5 	"/>
	<polygon class="st0" points="377,184 378,184.2 378,177.1 377,176.8 	"/>
	<polygon class="st0" points="327,218.9 328,219 328,210.5 327,210.4 	"/>
	<polygon class="st0" points="342,220.7 343,220.8 343,212.7 342,212.5 	"/>
	<polygon class="st0" points="332,219.5 333,219.6 333,211.2 332,211.1 	"/>
	<polygon class="st0" points="347,221.3 348,221.4 348,213.4 347,213.3 	"/>
	<polygon class="st0" points="367,223.6 368,223.7 368,216.3 367,216.2 	"/>
	<polygon class="st0" points="352,221.8 353,222 353,214.1 352,214 	"/>
	<polygon class="st0" points="362,223 363,223.1 363,215.6 362,215.4 	"/>
	<polygon class="st0" points="357,222.4 358,222.6 358,214.9 357,214.7 	"/>
	<polygon class="st0" points="337,220.1 338,220.2 338,212 337,211.8 	"/>
	<polygon class="st0" points="297,215.4 298,215.5 298,206.2 297,206 	"/>
	<polygon class="st0" points="322,218.3 323,218.5 323,209.8 322,209.7 	"/>
	<polygon class="st0" points="302,216 303,216.1 303,206.9 302,206.8 	"/>
	<polygon class="st0" points="292,214.8 293,214.9 293,205.5 292,205.3 	"/>
	<polygon class="st0" points="317,217.7 318,217.9 318,209.1 317,208.9 	"/>
	<polygon class="st0" points="312,217.2 313,217.3 313,208.4 312,208.2 	"/>
	<polygon class="st0" points="307,216.6 308,216.7 308,207.6 307,207.5 	"/>
	<polygon class="st0" points="442,232.4 443,232.5 443,227.1 442,227 	"/>
	<polygon class="st0" points="422,230.1 423,230.2 423,224.3 422,224.1 	"/>
	<polygon class="st0" points="427,230.6 428,230.8 428,225 427,224.8 	"/>
	<polygon class="st0" points="372,224.2 373,224.3 373,217 372,216.9 	"/>
	<polygon class="st0" points="412,228.9 413,229 413,222.8 412,222.7 	"/>
	<polygon class="st0" points="432,231.2 433,231.3 433,225.7 432,225.6 	"/>
	<polygon class="st0" points="447,233 448,233.1 448,227.9 447,227.7 	"/>
	<polygon class="st0" points="287,214.2 288,214.3 288,204.7 287,204.6 	"/>
	<polygon class="st0" points="417,229.5 418,229.6 418,223.5 417,223.4 	"/>
	<polygon class="st0" points="387,226 388,226.1 388,219.2 387,219.1 	"/>
	<polygon class="st0" points="382,225.4 383,225.5 383,218.5 382,218.3 	"/>
	<polygon class="st0" points="407,228.3 408,228.4 408,222.1 407,221.9 	"/>
	<polygon class="st0" points="377,224.8 378,224.9 378,217.7 377,217.6 	"/>
	<polygon class="st0" points="392,226.5 393,226.7 393,219.9 392,219.8 	"/>
	<polygon class="st0" points="402,227.7 403,227.8 403,221.4 402,221.2 	"/>
	<polygon class="st0" points="397,227.1 398,227.2 398,220.6 397,220.5 	"/>
	<polygon class="st0" points="437,231.8 438,231.9 438,226.4 437,226.3 	"/>
	<polygon class="st0" points="362,233.6 363,233.7 363,226.2 362,226 	"/>
	<polygon class="st0" points="357,233.2 358,233.3 358,225.6 357,225.5 	"/>
	<polygon class="st0" points="307,228.7 308,228.8 308,219.7 307,219.6 	"/>
	<polygon class="st0" points="367,234.1 368,234.2 368,226.7 367,226.6 	"/>
	<polygon class="st0" points="372,234.5 373,234.6 373,227.3 372,227.2 	"/>
	<polygon class="st0" points="347,232.3 348,232.4 348,224.4 347,224.3 	"/>
	<polygon class="st0" points="387,235.9 388,236 388,229.1 387,229 	"/>
	<polygon class="st0" points="377,235 378,235.1 378,227.9 377,227.8 	"/>
	<polygon class="st0" points="382,235.4 383,235.5 383,228.5 382,228.4 	"/>
	<polygon class="st0" points="317,229.6 318,229.7 318,220.9 317,220.8 	"/>
	<polygon class="st0" points="312,229.1 313,229.2 313,220.3 312,220.2 	"/>
	<polygon class="st0" points="342,231.8 343,231.9 343,223.8 342,223.7 	"/>
	<polygon class="st0" points="322,230 323,230.1 323,221.5 322,221.4 	"/>
	<polygon class="st0" points="337,231.4 338,231.5 338,223.2 337,223.1 	"/>
	<polygon class="st0" points="467,243.1 468,243.2 468,238.5 467,238.3 	"/>
	<polygon class="st0" points="347,177.2 348,177.4 348,169.5 347,169.2 	"/>
	<polygon class="st0" points="352,232.7 353,232.8 353,225 352,224.9 	"/>
	<polygon class="st0" points="442,240.8 443,240.9 443,235.5 442,235.4 	"/>
	<polygon class="st0" points="447,241.3 448,241.4 448,236.1 447,236 	"/>
	<polygon class="st0" points="437,240.4 438,240.5 438,234.9 437,234.8 	"/>
	<polygon class="st0" points="432,239.9 433,240 433,234.4 432,234.2 	"/>
	<polygon class="st0" points="452,241.7 453,241.8 453,236.7 452,236.6 	"/>
	<polygon class="st0" points="462,242.6 463,242.7 463,237.9 462,237.8 	"/>
	<polygon class="st0" points="457,242.2 458,242.3 458,237.3 457,237.2 	"/>
	<polygon class="st0" points="407,237.7 408,237.8 408,231.4 407,231.3 	"/>
	<polygon class="st0" points="402,237.2 403,237.3 403,230.8 402,230.7 	"/>
	<polygon class="st0" points="392,236.3 393,236.4 393,229.7 392,229.6 	"/>
	<polygon class="st0" points="397,236.8 398,236.9 398,230.3 397,230.1 	"/>
	<polygon class="st0" points="412,238.1 413,238.2 413,232 412,231.9 	"/>
	<polygon class="st0" points="422,239 423,239.1 423,233.2 422,233.1 	"/>
	<polygon class="st0" points="417,238.6 418,238.7 418,232.6 417,232.5 	"/>
	<polygon class="st0" points="427,239.5 428,239.6 428,233.8 427,233.7 	"/>
	<polygon class="st0" points="327,230.5 328,230.6 328,222.1 327,221.9 	"/>
	<polygon class="st0" points="287,163.6 288,163.8 288,154.2 287,154 	"/>
	<polygon class="st0" points="297,165.8 298,166.1 298,156.8 297,156.5 	"/>
	<polygon class="st0" points="292,164.7 293,164.9 293,155.5 292,155.3 	"/>
	<polygon class="st0" points="302,167 303,167.2 303,158.1 302,157.8 	"/>
	<polygon class="st0" points="272,160.2 273,160.4 273,150.4 272,150.2 	"/>
	<polygon class="st0" points="307,168.1 308,168.3 308,159.3 307,159.1 	"/>
	<polygon class="st0" points="302,228.2 303,228.3 303,219.1 302,219 	"/>
	<polygon class="st0" points="282,162.4 283,162.7 283,153 282,152.7 	"/>
	<polygon class="st0" points="277,161.3 278,161.5 278,151.7 277,151.5 	"/>
	<polygon class="st0" points="312,169.2 313,169.5 313,160.6 312,160.3 	"/>
	<polygon class="st0" points="337,174.9 338,175.1 338,166.9 337,166.7 	"/>
	<polygon class="st0" points="342,176 343,176.3 343,168.2 342,168 	"/>
	<polygon class="st0" points="332,173.8 333,174 333,165.7 332,165.4 	"/>
	<polygon class="st0" points="317,170.4 318,170.6 318,161.9 317,161.6 	"/>
	<polygon class="st0" points="327,172.6 328,172.9 328,164.4 327,164.1 	"/>
	<polygon class="st0" points="322,171.5 323,171.7 323,163.1 322,162.9 	"/>
	<polygon class="st0" points="267,159 268,159.3 268,149.2 267,148.9 	"/>
	<polygon class="st0" points="277,226 278,226.1 278,216.2 277,216.1 	"/>
	<polygon class="st0" points="267,225.1 268,225.2 268,215 267,214.9 	"/>
	<polygon class="st0" points="272,225.5 273,225.6 273,215.6 272,215.5 	"/>
	<polygon class="st0" points="282,226.4 283,226.5 283,216.8 282,216.7 	"/>
	<polygon class="st0" points="297,227.8 298,227.9 298,218.5 297,218.4 	"/>
	<polygon class="st0" points="292,227.3 293,227.4 293,218 292,217.8 	"/>
	<polygon class="st0" points="287,226.9 288,227 288,217.4 287,217.3 	"/>
	<polygon class="st0" points="256,183.6 257,183.7 257,173.3 256,173.1 	"/>
	<polygon class="st0" points="262,157.9 263,158.1 263,147.9 262,147.6 	"/>
	<polygon class="st0" points="256,170.1 257,170.3 257,159.8 256,159.6 	"/>
	<polygon class="st0" points="256,156.5 257,156.8 257,146.4 256,146.1 	"/>
	<polygon class="st0" points="262,224.7 263,224.7 263,214.4 262,214.3 	"/>
	<polygon class="st0" points="256,224.1 257,224.2 257,213.7 256,213.6 	"/>
	<polygon class="st0" points="256,210.6 257,210.7 257,200.3 256,200.1 	"/>
	<polygon class="st0" points="256,197.1 257,197.2 257,186.8 256,186.6 	"/>
	<polygon class="st0" points="332,230.9 333,231 333,222.6 332,222.5 	"/>
	<polygon class="st0" points="277,200.1 278,200.3 278,190.4 277,190.2 	"/>
	<polygon class="st0" points="272,199.4 273,199.5 273,189.5 272,189.4 	"/>
	<polygon class="st0" points="267,185.5 268,185.6 268,175.5 267,175.3 	"/>
	<polygon class="st0" points="267,198.7 268,198.8 268,188.7 267,188.5 	"/>
	<polygon class="st0" points="282,200.8 283,201 283,191.3 282,191.1 	"/>
	<polygon class="st0" points="297,203 298,203.2 298,193.8 297,193.7 	"/>
	<polygon class="st0" points="292,202.3 293,202.4 293,193 292,192.8 	"/>
	<polygon class="st0" points="302,203.7 303,203.9 303,194.7 302,194.5 	"/>
	<polygon class="st0" points="287,201.6 288,201.7 288,192.1 287,191.9 	"/>
	<polygon class="st0" points="292,189.8 293,189.9 293,180.5 292,180.3 	"/>
	<polygon class="st0" points="297,190.6 298,190.8 298,181.5 297,181.3 	"/>
	<polygon class="st0" points="272,186.3 273,186.5 273,176.5 272,176.3 	"/>
	<polygon class="st0" points="302,191.5 303,191.6 303,182.5 302,182.3 	"/>
	<polygon class="st0" points="277,187.2 278,187.4 278,177.5 277,177.3 	"/>
	<polygon class="st0" points="287,188.9 288,189.1 288,179.5 287,179.3 	"/>
	<polygon class="st0" points="282,188 283,188.2 283,178.5 282,178.3 	"/>
	<polygon class="st0" points="367,213.1 368,213.3 368,205.9 367,205.7 	"/>
	<polygon class="st0" points="362,212.4 363,212.6 363,205 362,204.8 	"/>
	<polygon class="st0" points="357,211.7 358,211.8 358,204.1 357,204 	"/>
	<polygon class="st0" points="307,192.3 308,192.5 308,183.5 307,183.3 	"/>
	<polygon class="st0" points="352,211 353,211.1 353,203.3 352,203.1 	"/>
	<polygon class="st0" points="377,214.6 378,214.7 378,207.6 377,207.4 	"/>
	<polygon class="st0" points="307,204.5 308,204.6 308,195.6 307,195.4 	"/>
	<polygon class="st0" points="372,213.9 373,214 373,206.7 372,206.6 	"/>
	<polygon class="st0" points="347,210.2 348,210.4 348,202.4 347,202.3 	"/>
	<polygon class="st0" points="387,216 388,216.2 388,209.3 387,209.1 	"/>
	<polygon class="st0" points="322,206.6 323,206.8 323,198.1 322,198 	"/>
	<polygon class="st0" points="317,205.9 318,206 318,197.3 317,197.1 	"/>
	<polygon class="st0" points="312,205.2 313,205.3 313,196.4 312,196.2 	"/>
	<polygon class="st0" points="327,207.3 328,207.5 328,199 327,198.8 	"/>
	<polygon class="st0" points="337,208.8 338,208.9 338,200.7 337,200.5 	"/>
	<polygon class="st0" points="342,209.5 343,209.7 343,201.6 342,201.4 	"/>
	<polygon class="st0" points="332,208.1 333,208.2 333,199.9 332,199.7 	"/>
	<polygon class="st0" points="382,215.3 383,215.4 383,208.4 382,208.3 	"/>
	<polygon class="st0" points="417,211.2 418,211.4 418,205.4 417,205.2 	"/>
	<polygon class="st0" points="412,210.4 413,210.6 413,204.4 412,204.2 	"/>
	<polygon class="st0" points="312,193.2 313,193.4 313,184.5 312,184.3 	"/>
	<polygon class="st0" points="432,213.8 433,214 433,208.4 432,208.2 	"/>
	<polygon class="st0" points="427,213 428,213.1 428,207.4 427,207.2 	"/>
	<polygon class="st0" points="407,209.5 408,209.7 408,203.4 407,203.2 	"/>
	<polygon class="st0" points="397,207.8 398,208 398,201.4 397,201.2 	"/>
	<polygon class="st0" points="402,208.7 403,208.8 403,202.4 402,202.2 	"/>
	<polygon class="st0" points="422,212.1 423,212.3 423,206.4 422,206.2 	"/>
	<polygon class="st0" points="437,214.7 438,214.9 438,209.4 437,209.2 	"/>
	<polygon class="st0" points="482,251.7 483,251.8 483,247.5 482,247.4 	"/>
	<polygon class="st0" points="462,219 463,219.1 463,214.4 462,214.2 	"/>
	<polygon class="st0" points="457,218.1 458,218.3 458,213.4 457,213.2 	"/>
	<polygon class="st0" points="442,215.5 443,215.7 443,210.4 442,210.2 	"/>
	<polygon class="st0" points="452,217.3 453,217.4 453,212.4 452,212.2 	"/>
	<polygon class="st0" points="447,216.4 448,216.6 448,211.4 447,211.2 	"/>
	<polygon class="st0" points="392,206.9 393,207.1 393,200.4 392,200.2 	"/>
	<polygon class="st0" points="332,196.6 333,196.8 333,188.5 332,188.3 	"/>
	<polygon class="st0" points="337,197.5 338,197.7 338,189.5 337,189.3 	"/>
	<polygon class="st0" points="342,198.4 343,198.5 343,190.4 342,190.2 	"/>
	<polygon class="st0" points="327,195.8 328,195.9 328,187.5 327,187.3 	"/>
	<polygon class="st0" points="387,206.1 388,206.3 388,199.4 387,199.2 	"/>
	<polygon class="st0" points="322,194.9 323,195.1 323,186.5 322,186.3 	"/>
	<polygon class="st0" points="347,199.2 348,199.4 348,191.4 347,191.2 	"/>
	<polygon class="st0" points="317,194.1 318,194.2 318,185.5 317,185.3 	"/>
	<polygon class="st0" points="377,204.4 378,204.5 378,197.4 377,197.2 	"/>
	<polygon class="st0" points="352,200.1 353,200.2 353,192.4 352,192.2 	"/>
	<polygon class="st0" points="382,205.2 383,205.4 383,198.4 382,198.2 	"/>
	<polygon class="st0" points="372,203.5 373,203.7 373,196.4 372,196.2 	"/>
	<polygon class="st0" points="357,200.9 358,201.1 358,193.4 357,193.2 	"/>
	<polygon class="st0" points="362,201.8 363,202 363,194.4 362,194.2 	"/>
	<polygon class="st0" points="367,202.6 368,202.8 368,195.4 367,195.2 	"/>
	<polygon class="st0" points="377,194.2 378,194.4 378,187.3 377,187 	"/>
	<polygon class="st0" points="337,186.2 338,186.4 338,178.2 337,178 	"/>
	<polygon class="st0" points="332,185.2 333,185.4 333,177.1 332,176.8 	"/>
	<polygon class="st0" points="342,187.2 343,187.4 343,179.3 342,179.1 	"/>
	<polygon class="st0" points="387,196.2 388,196.4 388,189.5 387,189.3 	"/>
	<polygon class="st0" points="347,188.2 348,188.4 348,180.5 347,180.2 	"/>
	<polygon class="st0" points="312,181.2 313,181.4 313,172.5 312,172.3 	"/>
	<polygon class="st0" points="322,183.2 323,183.4 323,174.8 322,174.6 	"/>
	<polygon class="st0" points="317,182.2 318,182.4 318,173.7 317,173.4 	"/>
	<polygon class="st0" points="382,195.2 383,195.4 383,188.4 382,188.2 	"/>
	<polygon class="st0" points="372,193.2 373,193.4 373,186.1 372,185.9 	"/>
	<polygon class="st0" points="282,213.6 283,213.8 283,204 282,203.9 	"/>
	<polygon class="st0" points="307,180.2 308,180.4 308,171.4 307,171.2 	"/>
	<polygon class="st0" points="367,192.2 368,192.4 368,185 367,184.8 	"/>
	<polygon class="st0" points="357,190.2 358,190.4 358,182.7 357,182.5 	"/>
	<polygon class="st0" points="362,191.2 363,191.4 363,183.9 362,183.6 	"/>
	<polygon class="st0" points="352,189.2 353,189.4 353,181.6 352,181.4 	"/>
	<polygon class="st0" points="327,184.2 328,184.4 328,175.9 327,175.7 	"/>
	<polygon class="st0" points="262,198 263,198.1 263,187.8 262,187.6 	"/>
	<polygon class="st0" points="262,211.3 263,211.4 263,201.1 262,201 	"/>
	<polygon class="st0" points="262,171.3 263,171.5 263,161.2 262,161 	"/>
	<polygon class="st0" points="262,184.6 263,184.8 263,174.5 262,174.3 	"/>
	<polygon class="st0" points="267,211.9 268,212 268,201.9 267,201.7 	"/>
	<polygon class="st0" points="277,213.1 278,213.2 278,203.3 277,203.2 	"/>
	<polygon class="st0" points="272,212.5 273,212.6 273,202.6 272,202.4 	"/>
	<polygon class="st0" points="282,175.2 283,175.4 283,165.7 282,165.5 	"/>
	<polygon class="st0" points="292,177.2 293,177.4 293,168 292,167.8 	"/>
	<polygon class="st0" points="267,172.2 268,172.4 268,162.3 267,162.1 	"/>
	<polygon class="st0" points="297,178.2 298,178.4 298,169.1 297,168.9 	"/>
	<polygon class="st0" points="287,176.2 288,176.4 288,166.9 287,166.6 	"/>
	<polygon class="st0" points="272,173.2 273,173.4 273,163.5 272,163.2 	"/>
	<polygon class="st0" points="277,174.2 278,174.4 278,164.6 277,164.4 	"/>
	<polygon class="st0" points="302,179.2 303,179.4 303,170.3 302,170 	"/>
	<polygon class="st0" points="417,220.4 418,220.5 418,214.5 417,214.3 	"/>
	<polygon class="st0" points="442,224 443,224.1 443,218.8 442,218.6 	"/>
	<polygon class="st0" points="447,224.7 448,224.8 448,219.6 447,219.4 	"/>
	<polygon class="st0" points="432,222.5 433,222.7 433,217 432,216.9 	"/>
	<polygon class="st0" points="452,225.4 453,225.6 453,220.5 452,220.3 	"/>
	<polygon class="st0" points="437,223.2 438,223.4 438,217.9 437,217.7 	"/>
	<polygon class="st0" points="467,227.6 468,227.7 468,223.1 467,222.9 	"/>
	<polygon class="st0" points="462,226.9 463,227 463,222.2 462,222 	"/>
	<polygon class="st0" points="457,226.1 458,226.3 458,221.3 457,221.2 	"/>
	<polygon class="st0" points="407,218.9 408,219.1 408,212.7 407,212.6 	"/>
	<polygon class="st0" points="467,219.8 468,220 468,215.3 467,215.2 	"/>
	<polygon class="st0" points="402,218.2 403,218.3 403,211.9 402,211.7 	"/>
	<polygon class="st0" points="397,217.5 398,217.6 398,211 397,210.9 	"/>
	<polygon class="st0" points="427,221.8 428,221.9 428,216.2 427,216 	"/>
	<polygon class="st0" points="422,221.1 423,221.2 423,215.3 422,215.1 	"/>
	<polygon class="st0" points="412,219.6 413,219.8 413,213.6 412,213.4 	"/>
	<polygon class="st0" points="392,216.7 393,216.9 393,210.2 392,210 	"/>
	<polygon class="st0" points="407,200.1 408,200.3 408,194.1 407,193.8 	"/>
	<polygon class="st0" points="417,202.1 418,202.3 418,196.3 417,196.1 	"/>
	<polygon class="st0" points="427,204.1 428,204.3 428,198.6 427,198.4 	"/>
	<polygon class="st0" points="467,212.1 468,212.3 468,207.6 467,207.4 	"/>
	<polygon class="st0" points="412,201.1 413,201.3 413,195.2 412,195 	"/>
	<polygon class="st0" points="392,197.2 393,197.3 393,190.7 392,190.4 	"/>
	<polygon class="st0" points="397,198.1 398,198.3 398,191.8 397,191.6 	"/>
	<polygon class="st0" points="402,199.1 403,199.3 403,192.9 402,192.7 	"/>
	<polygon class="st0" points="422,203.1 423,203.3 423,197.5 422,197.2 	"/>
	<polygon class="st0" points="457,210.1 458,210.3 458,205.4 457,205.2 	"/>
	<polygon class="st0" points="462,211.1 463,211.3 463,206.5 462,206.3 	"/>
	<polygon class="st0" points="452,209.1 453,209.3 453,204.2 452,204 	"/>
	<polygon class="st0" points="432,205.1 433,205.3 433,199.7 432,199.5 	"/>
	<polygon class="st0" points="437,206.1 438,206.3 438,200.9 437,200.6 	"/>
	<polygon class="st0" points="447,208.1 448,208.3 448,203.1 447,202.9 	"/>
	<polygon class="st0" points="442,207.1 443,207.3 443,202 442,201.8 	"/>
	<polygon class="st0" points="342,164.9 343,165.1 343,157.1 342,156.8 	"/>
	<polygon class="st0" points="287,252.2 288,252.3 288,242.6 287,242.6 	"/>
	<polygon class="st0" points="292,252.4 293,252.4 293,242.9 292,242.9 	"/>
	<polygon class="st0" points="282,252 283,252.1 283,242.3 282,242.3 	"/>
	<polygon class="st0" points="297,252.6 298,252.6 298,243.3 297,243.2 	"/>
	<polygon class="st0" points="277,251.9 278,251.9 278,242 277,241.9 	"/>
	<polygon class="st0" points="302,252.7 303,252.8 303,243.6 302,243.5 	"/>
	<polygon class="st0" points="312,253.1 313,253.1 313,244.2 312,244.1 	"/>
	<polygon class="st0" points="307,252.9 308,253 308,243.9 307,243.8 	"/>
	<polygon class="st0" points="244,250.7 245,250.7 245,239.9 244,239.9 	"/>
	<polygon class="st0" points="317,253.3 318,253.3 318,244.5 317,244.4 	"/>
	<polygon class="st0" points="272,251.7 273,251.7 273,241.7 272,241.6 	"/>
	<polygon class="st0" points="244,236.9 245,236.9 245,226.1 244,226 	"/>
	<polygon class="st0" points="250,250.9 251,251 251,240.3 250,240.3 	"/>
	<polygon class="st0" points="267,251.5 268,251.6 268,241.4 267,241.3 	"/>
	<polygon class="st0" points="262,251.3 263,251.4 263,241.1 262,241 	"/>
	<polygon class="st0" points="256,251.1 257,251.2 257,240.7 256,240.6 	"/>
	<polygon class="st0" points="377,255.4 378,255.4 378,248.3 377,248.2 	"/>
	<polygon class="st0" points="244,223 245,223.1 245,212.3 244,212.2 	"/>
	<polygon class="st0" points="372,255.2 373,255.2 373,247.9 372,247.9 	"/>
	<polygon class="st0" points="367,255 368,255.1 368,247.6 367,247.6 	"/>
	<polygon class="st0" points="382,255.6 383,255.6 383,248.6 382,248.5 	"/>
	<polygon class="st0" points="397,256.1 398,256.1 398,249.5 397,249.4 	"/>
	<polygon class="st0" points="362,254.9 363,254.9 363,247.3 362,247.3 	"/>
	<polygon class="st0" points="387,255.7 388,255.8 388,248.9 387,248.8 	"/>
	<polygon class="st0" points="392,255.9 393,255.9 393,249.2 392,249.1 	"/>
	<polygon class="st0" points="337,254 338,254 338,245.8 337,245.7 	"/>
	<polygon class="st0" points="322,253.5 323,253.5 323,244.8 322,244.8 	"/>
	<polygon class="st0" points="332,253.8 333,253.8 333,245.4 332,245.4 	"/>
	<polygon class="st0" points="327,253.6 328,253.7 328,245.1 327,245.1 	"/>
	<polygon class="st0" points="357,254.7 358,254.7 358,247 357,246.9 	"/>
	<polygon class="st0" points="352,254.5 353,254.5 353,246.7 352,246.6 	"/>
	<polygon class="st0" points="342,254.2 343,254.2 343,246.1 342,246 	"/>
	<polygon class="st0" points="347,254.3 348,254.4 348,246.4 347,246.3 	"/>
	<polygon class="st0" points="307,143.8 308,144.1 308,135.2 307,134.9 	"/>
	<polygon class="st0" points="322,148.1 323,148.3 323,139.8 322,139.5 	"/>
	<polygon class="st0" points="327,149.5 328,149.8 328,141.3 327,141 	"/>
	<polygon class="st0" points="332,150.9 333,151.2 333,142.9 332,142.6 	"/>
	<polygon class="st0" points="317,146.7 318,146.9 318,138.2 317,137.9 	"/>
	<polygon class="st0" points="312,145.3 313,145.5 313,136.7 312,136.4 	"/>
	<polygon class="st0" points="244,209.2 245,209.3 245,198.5 244,198.4 	"/>
	<polygon class="st0" points="402,256.3 403,256.3 403,249.8 402,249.8 	"/>
	<polygon class="st0" points="337,152.3 338,152.6 338,144.4 337,144.1 	"/>
	<polygon class="st0" points="302,142.4 303,142.7 303,133.6 302,133.3 	"/>
	<polygon class="st0" points="367,160.7 368,161 368,153.7 367,153.4 	"/>
	<polygon class="st0" points="362,159.3 363,159.6 363,152.1 362,151.8 	"/>
	<polygon class="st0" points="342,153.7 343,154 343,146 342,145.6 	"/>
	<polygon class="st0" points="372,162.1 373,162.4 373,155.2 372,154.9 	"/>
	<polygon class="st0" points="347,155.1 348,155.4 348,147.5 347,147.2 	"/>
	<polygon class="st0" points="357,157.9 358,158.2 358,150.6 357,150.3 	"/>
	<polygon class="st0" points="352,156.5 353,156.8 353,149 352,148.7 	"/>
	<polygon class="st0" points="297,141 298,141.3 298,132.1 297,131.8 	"/>
	<polygon class="st0" points="250,127.8 251,128.1 251,117.6 250,117.3 	"/>
	<polygon class="st0" points="244,140 245,140.2 245,129.5 244,129.2 	"/>
	<polygon class="st0" points="244,126.1 245,126.4 245,115.7 244,115.4 	"/>
	<polygon class="st0" points="244,153.8 245,154 245,143.3 244,143.1 	"/>
	<polygon class="st0" points="244,167.7 245,167.9 245,157.1 244,156.9 	"/>
	<polygon class="st0" points="244,195.4 245,195.5 245,184.7 244,184.6 	"/>
	<polygon class="st0" points="244,181.5 245,181.7 245,170.9 244,170.7 	"/>
	<polygon class="st0" points="277,135.4 278,135.7 278,125.9 277,125.6 	"/>
	<polygon class="st0" points="282,136.8 283,137.1 283,127.4 282,127.1 	"/>
	<polygon class="st0" points="287,138.2 288,138.5 288,129 287,128.7 	"/>
	<polygon class="st0" points="292,139.6 293,139.9 293,130.5 292,130.2 	"/>
	<polygon class="st0" points="256,129.5 257,129.8 257,119.4 256,119.1 	"/>
	<polygon class="st0" points="262,131.2 263,131.5 263,121.3 262,121 	"/>
	<polygon class="st0" points="267,132.6 268,132.9 268,122.8 267,122.5 	"/>
	<polygon class="st0" points="272,134 273,134.3 273,124.4 272,124.1 	"/>
	<polygon class="st0" points="407,256.4 408,256.5 408,250.1 407,250.1 	"/>
	<polygon class="st0" points="467,258.5 468,258.6 468,253.9 467,253.8 	"/>
	<polygon class="st0" points="462,258.4 463,258.4 463,253.6 462,253.5 	"/>
	<polygon class="st0" points="457,258.2 458,258.2 458,253.3 457,253.2 	"/>
	<polygon class="st0" points="452,258 453,258.1 453,252.9 452,252.9 	"/>
	<polygon class="st0" points="447,257.8 448,257.9 448,252.6 447,252.6 	"/>
	<polygon class="st0" points="482,259.1 483,259.1 483,254.8 482,254.8 	"/>
	<polygon class="st0" points="472,258.7 473,258.8 473,254.2 472,254.1 	"/>
	<polygon class="st0" points="477,258.9 478,258.9 478,254.5 477,254.4 	"/>
	<polygon class="st0" points="427,257.1 428,257.2 428,251.4 427,251.3 	"/>
	<polygon class="st0" points="422,257 423,257 423,251.1 422,251 	"/>
	<polygon class="st0" points="442,257.7 443,257.7 443,252.3 442,252.3 	"/>
	<polygon class="st0" points="412,256.6 413,256.7 413,250.4 412,250.4 	"/>
	<polygon class="st0" points="417,256.8 418,256.8 418,250.8 417,250.7 	"/>
	<polygon class="st0" points="437,257.5 438,257.5 438,252 437,251.9 	"/>
	<polygon class="st0" points="432,257.3 433,257.4 433,251.7 432,251.6 	"/>
	<polygon class="st0" points="377,163.5 378,163.8 378,156.8 377,156.4 	"/>
	<polygon class="st0" points="392,167.8 393,168 393,161.4 392,161.1 	"/>
	<polygon class="st0" points="302,154.7 303,155 303,145.8 302,145.6 	"/>
	<polygon class="st0" points="297,153.4 298,153.7 298,144.4 297,144.2 	"/>
	<polygon class="st0" points="292,152.2 293,152.4 293,143 292,142.7 	"/>
	<polygon class="st0" points="307,156 308,156.2 308,147.2 307,147 	"/>
	<polygon class="st0" points="287,150.9 288,151.1 288,141.6 287,141.3 	"/>
	<polygon class="st0" points="277,148.4 278,148.6 278,138.8 277,138.5 	"/>
	<polygon class="st0" points="312,157.2 313,157.5 313,148.7 312,148.4 	"/>
	<polygon class="st0" points="272,147.1 273,147.3 273,137.4 272,137.1 	"/>
	<polygon class="st0" points="282,149.6 283,149.9 283,140.2 282,139.9 	"/>
	<polygon class="st0" points="337,163.6 338,163.8 338,155.7 337,155.4 	"/>
	<polygon class="st0" points="347,166.1 348,166.4 348,158.5 347,158.2 	"/>
	<polygon class="st0" points="352,167.4 353,167.7 353,159.9 352,159.6 	"/>
	<polygon class="st0" points="327,161 328,161.3 328,152.9 327,152.6 	"/>
	<polygon class="st0" points="322,159.8 323,160 323,151.5 322,151.2 	"/>
	<polygon class="st0" points="332,162.3 333,162.6 333,154.3 332,154 	"/>
	<polygon class="st0" points="317,158.5 318,158.8 318,150.1 317,149.8 	"/>
	<polygon class="st0" points="250,209.9 251,210 251,199.4 250,199.2 	"/>
	<polygon class="st0" points="250,237.2 251,237.3 251,226.7 250,226.6 	"/>
	<polygon class="st0" points="357,168.7 358,168.9 358,161.3 357,161 	"/>
	<polygon class="st0" points="250,223.6 251,223.7 251,213 250,212.9 	"/>
	<polygon class="st0" points="256,237.6 257,237.7 257,227.2 256,227.1 	"/>
	<polygon class="st0" points="262,238 263,238.1 263,227.8 262,227.7 	"/>
	<polygon class="st0" points="272,238.6 273,238.7 273,228.7 272,228.6 	"/>
	<polygon class="st0" points="267,238.3 268,238.4 268,228.2 267,228.1 	"/>
	<polygon class="st0" points="250,168.9 251,169.1 251,158.5 250,158.3 	"/>
	<polygon class="st0" points="256,143 257,143.3 257,132.9 256,132.6 	"/>
	<polygon class="st0" points="250,141.5 251,141.8 251,131.2 250,130.9 	"/>
	<polygon class="st0" points="262,144.5 263,144.8 263,134.6 262,134.3 	"/>
	<polygon class="st0" points="250,182.5 251,182.7 251,172.1 250,171.9 	"/>
	<polygon class="st0" points="250,196.2 251,196.4 251,185.8 250,185.6 	"/>
	<polygon class="st0" points="267,145.8 268,146.1 268,136 267,135.7 	"/>
	<polygon class="st0" points="250,155.2 251,155.4 251,144.8 250,144.6 	"/>
	<polygon class="st0" points="482,200.4 483,200.7 483,196.5 482,196.2 	"/>
	<polygon class="st0" points="442,190.2 443,190.5 443,185.2 442,184.9 	"/>
	<polygon class="st0" points="462,195.3 463,195.6 463,190.8 462,190.6 	"/>
	<polygon class="st0" points="467,196.6 468,196.9 468,192.2 467,192 	"/>
	<polygon class="st0" points="277,238.9 278,239 278,229.1 277,229 	"/>
	<polygon class="st0" points="477,199.1 478,199.4 478,195.1 477,194.8 	"/>
	<polygon class="st0" points="447,191.5 448,191.8 448,186.6 447,186.3 	"/>
	<polygon class="st0" points="457,194.1 458,194.3 458,189.4 457,189.2 	"/>
	<polygon class="st0" points="452,192.8 453,193 453,188 452,187.7 	"/>
	<polygon class="st0" points="472,197.9 473,198.1 473,193.7 472,193.4 	"/>
	<polygon class="st0" points="477,236.5 478,236.6 478,232.2 477,232.1 	"/>
	<polygon class="st0" points="477,229 478,229.2 478,224.8 477,224.6 	"/>
	<polygon class="st0" points="477,244 478,244.1 478,239.6 477,239.5 	"/>
	<polygon class="st0" points="477,206.6 478,206.8 478,202.5 477,202.2 	"/>
	<polygon class="st0" points="477,221.6 478,221.7 478,217.3 477,217.1 	"/>
	<polygon class="st0" points="482,207.7 483,208 483,203.8 482,203.5 	"/>
	<polygon class="st0" points="477,214.1 478,214.3 478,209.9 477,209.7 	"/>
	<polygon class="st0" points="397,178.8 398,179.1 398,172.6 397,172.3 	"/>
	<polygon class="st0" points="382,175 383,175.3 383,168.3 382,168.1 	"/>
	<polygon class="st0" points="387,176.3 388,176.5 388,169.7 387,169.5 	"/>
	<polygon class="st0" points="392,177.6 393,177.8 393,171.2 392,170.9 	"/>
	<polygon class="st0" points="377,173.7 378,174 378,166.9 377,166.7 	"/>
	<polygon class="st0" points="367,171.2 368,171.5 368,164.1 367,163.8 	"/>
	<polygon class="st0" points="372,172.5 373,172.7 373,165.5 372,165.2 	"/>
	<polygon class="st0" points="362,169.9 363,170.2 363,162.7 362,162.4 	"/>
	<polygon class="st0" points="432,187.7 433,188 433,182.4 432,182.1 	"/>
	<polygon class="st0" points="422,185.2 423,185.4 423,179.6 422,179.3 	"/>
	<polygon class="st0" points="427,186.4 428,186.7 428,181 427,180.7 	"/>
	<polygon class="st0" points="437,189 438,189.2 438,183.8 437,183.5 	"/>
	<polygon class="st0" points="407,181.4 408,181.6 408,175.4 407,175.1 	"/>
	<polygon class="st0" points="402,180.1 403,180.3 403,174 402,173.7 	"/>
	<polygon class="st0" points="412,182.6 413,182.9 413,176.8 412,176.5 	"/>
	<polygon class="st0" points="417,183.9 418,184.2 418,178.2 417,177.9 	"/>
	<polygon class="st0" points="482,222.4 483,222.6 483,218.3 482,218.1 	"/>
	<polygon class="st0" points="482,215.1 483,215.3 483,211 482,210.8 	"/>
	<polygon class="st0" points="447,249.6 448,249.6 448,244.4 447,244.3 	"/>
	<polygon class="st0" points="482,193.1 483,193.3 483,189.1 482,188.8 	"/>
	<polygon class="st0" points="482,229.8 483,229.9 483,225.6 482,225.5 	"/>
	<polygon class="st0" points="382,164.9 383,165.2 383,158.3 382,158 	"/>
	<polygon class="st0" points="467,188.8 468,189.1 468,184.5 467,184.2 	"/>
	<polygon class="st0" points="472,190.3 473,190.5 473,186.1 472,185.7 	"/>
	<polygon class="st0" points="477,191.7 478,191.9 478,187.6 477,187.3 	"/>
	<polygon class="st0" points="482,244.4 483,244.5 483,240.2 482,240.1 	"/>
	<polygon class="st0" points="462,250.5 463,250.6 463,245.7 462,245.6 	"/>
	<polygon class="st0" points="462,187.4 463,187.7 463,183 462,182.7 	"/>
	<polygon class="st0" points="452,249.9 453,249.9 453,244.8 452,244.7 	"/>
	<polygon class="st0" points="457,250.2 458,250.2 458,245.3 457,245.2 	"/>
	<polygon class="st0" points="477,251.4 478,251.5 478,247.1 477,247 	"/>
	<polygon class="st0" points="472,251.1 473,251.2 473,246.6 472,246.5 	"/>
	<polygon class="st0" points="467,250.8 468,250.9 468,246.2 467,246.1 	"/>
	<polygon class="st0" points="482,237.1 483,237.2 483,232.9 482,232.8 	"/>
	<polygon class="st0" points="407,172 408,172.3 408,166 407,165.7 	"/>
	<polygon class="st0" points="402,170.6 403,170.8 403,164.5 402,164.2 	"/>
	<polygon class="st0" points="412,173.4 413,173.7 413,167.5 412,167.2 	"/>
	<polygon class="st0" points="397,169.2 398,169.4 398,162.9 397,162.6 	"/>
	<polygon class="st0" points="417,174.8 418,175.1 418,169.1 417,168.8 	"/>
	<polygon class="st0" points="457,186 458,186.3 458,181.4 457,181.1 	"/>
	<polygon class="st0" points="472,243.5 473,243.6 473,239 472,238.9 	"/>
	<polygon class="st0" points="387,166.3 388,166.6 388,159.8 387,159.5 	"/>
	<polygon class="st0" points="447,183.2 448,183.5 448,178.3 447,178 	"/>
	<polygon class="st0" points="442,181.8 443,182.1 443,176.8 442,176.5 	"/>
	<polygon class="st0" points="452,184.6 453,184.9 453,179.9 452,179.6 	"/>
	<polygon class="st0" points="422,176.2 423,176.5 423,170.6 422,170.3 	"/>
	<polygon class="st0" points="427,177.6 428,177.9 428,172.2 427,171.9 	"/>
	<polygon class="st0" points="437,180.4 438,180.7 438,175.3 437,174.9 	"/>
	<polygon class="st0" points="432,179 433,179.3 433,173.7 432,173.4 	"/>
	<polygon class="st0" points="337,242.7 338,242.7 338,234.5 337,234.4 	"/>
	<polygon class="st0" points="362,244.2 363,244.3 363,236.7 362,236.6 	"/>
	<polygon class="st0" points="282,239.2 283,239.3 283,229.5 282,229.5 	"/>
	<polygon class="st0" points="322,241.7 323,241.8 323,233.1 322,233.1 	"/>
	<polygon class="st0" points="327,242.1 328,242.1 328,233.6 327,233.5 	"/>
	<polygon class="st0" points="342,243 343,243.1 343,234.9 342,234.8 	"/>
	<polygon class="st0" points="357,243.9 358,244 358,236.3 357,236.2 	"/>
	<polygon class="st0" points="347,243.3 348,243.4 348,235.4 347,235.3 	"/>
	<polygon class="st0" points="352,243.6 353,243.7 353,235.8 352,235.7 	"/>
	<polygon class="st0" points="332,242.4 333,242.4 333,234 332,234 	"/>
	<polygon class="st0" points="297,240.2 298,240.2 298,230.9 297,230.8 	"/>
	<polygon class="st0" points="292,239.9 293,239.9 293,230.4 292,230.4 	"/>
	<polygon class="st0" points="287,239.6 288,239.6 288,230 287,229.9 	"/>
	<polygon class="st0" points="302,240.5 303,240.6 303,231.3 302,231.3 	"/>
	<polygon class="st0" points="312,241.1 313,241.2 313,232.2 312,232.2 	"/>
	<polygon class="st0" points="317,241.4 318,241.5 318,232.7 317,232.6 	"/>
	<polygon class="st0" points="307,240.8 308,240.9 308,231.8 307,231.7 	"/>
	<polygon class="st0" points="372,244.9 373,244.9 373,237.6 372,237.5 	"/>
	<polygon class="st0" points="417,247.7 418,247.7 418,241.7 417,241.6 	"/>
	<polygon class="st0" points="412,247.4 413,247.4 413,241.2 412,241.1 	"/>
	<polygon class="st0" points="407,247.1 408,247.1 408,240.8 407,240.7 	"/>
	<polygon class="st0" points="422,248 423,248.1 423,242.1 422,242 	"/>
	<polygon class="st0" points="437,248.9 438,249 438,243.5 437,243.4 	"/>
	<polygon class="st0" points="427,248.3 428,248.4 428,242.6 427,242.5 	"/>
	<polygon class="st0" points="432,248.6 433,248.7 433,243 432,242.9 	"/>
	<polygon class="st0" points="377,245.2 378,245.2 378,238.1 377,238 	"/>
	<polygon class="st0" points="367,244.6 368,244.6 368,237.2 367,237.1 	"/>
	<polygon class="st0" points="442,249.2 443,249.3 443,243.9 442,243.8 	"/>
	<polygon class="st0" points="382,245.5 383,245.6 383,238.5 382,238.4 	"/>
	<polygon class="st0" points="402,246.7 403,246.8 403,240.3 402,240.2 	"/>
	<polygon class="st0" points="397,246.4 398,246.5 398,239.9 397,239.8 	"/>
	<polygon class="st0" points="387,245.8 388,245.9 388,239 387,238.9 	"/>
	<polygon class="st0" points="392,246.1 393,246.2 393,239.4 392,239.3 	"/>
</g>
</svg>
