<?xml version="1.0" encoding="utf-8"?>
<!-- Generator: Adobe Illustrator 21.1.0, SVG Export Plug-In . SVG Version: 6.00 Build 0)  -->
<svg version="1.1" id="Слой_13" xmlns="http://www.w3.org/2000/svg" xmlns:xlink="http://www.w3.org/1999/xlink" x="0px"
	 y="0px" viewBox="0 0 500 270" style="enable-background:new 0 0 500 270;" xml:space="preserve">
<style type="text/css">
	.st0{fill:#4F9799;}
</style>
<path class="st0" d="M496,266v-36h-14V40h6v-2v-2V23h-0.1c0-0.3,0.1-0.7,0.1-1c0-4.4-2.4-8.3-6-10.4V4h6V0h-24v4h6v7.6
	c-3.6,2.1-6,5.9-6,10.4c0,0.3,0,0.7,0.1,1H464v6l-78.4,37H0v4h33v4.6L0,84v2.5v1v9v1v114v1v9v1v1.5l33,37.7v4.3H0v4h33h4h72h4h72h4
	h72h4h72h4h72h4h39h40h4v-4H496z M471,230v-39.5h10V230H471z M481,189.5h-10v-39h10V189.5z M481,149.5h-10v-39h10V149.5z M481,109.5
	h-10v-39h10V109.5z M481,69.5h-10V40h10V69.5z M468,30.9c0.6,0.6,1.3,1,2,1.5V36h-2V30.9z M471,32.9c1.5,0.7,3.2,1.1,5,1.1
	s3.5-0.4,5-1.1V36h-10V32.9z M482,36v-3.6c0.7-0.4,1.4-0.9,2-1.5V36H482z M471,4h10v7.1c-1.5-0.7-3.2-1.1-5-1.1s-3.5,0.4-5,1.1V4z
	 M476,14c4.4,0,8,3.6,8,8c0,4.4-3.6,8-8,8c-4.4,0-8-3.6-8-8C468,17.6,471.6,14,476,14z M339,257.9l-31-35.4h62L339,257.9z
	 M308,221.5v-9h62v9H308z M308,211.5v-114h62v114H308z M308,96.5v-9h62v9H308z M309.8,86.5l29.2-8.3l29.2,8.3H309.8z M263,257.9
	l-31-35.4h62L263,257.9z M232,221.5v-9h62v9H232z M232,211.5v-114h62v114H232z M232,96.5v-9h62v9H232z M233.8,86.5l29.2-8.3
	l29.2,8.3H233.8z M187,257.9l-31-35.4h62L187,257.9z M156,221.5v-9h62v9H156z M156,211.5v-114h62v114H156z M156,96.5v-9h62v9H156z
	 M157.8,86.5l29.2-8.3l29.2,8.3H157.8z M111,257.9l-31-35.4h62L111,257.9z M80,221.5v-9h62v9H80z M80,211.5v-114h62v114H80z
	 M80,96.5v-9h62v9H80z M81.8,86.5l29.2-8.3l29.2,8.3H81.8z M35,78.2l29.2,8.3H5.8L35,78.2z M4,87.5h62v9H4V87.5z M4,97.5h62v114H4
	V97.5z M4,212.5h62v9H4V212.5z M66,222.5l-31,35.4L4,222.5H66z M37,266v-4.3L70,224v-1.5v-1v-9v-1v-114v-1v-9v-1V84l-33-9.4V70h72
	v4.6L76,84v2.5v1v9v1v114v1v9v1v1.5l33,37.7v4.3H37z M113,266v-4.3l33-37.7v-1.5v-1v-9v-1v-114v-1v-9v-1V84l-33-9.4V70h72v4.6
	L152,84v2.5v1v9v1v114v1v9v1v1.5l33,37.7v4.3H113z M189,266v-4.3l33-37.7v-1.5v-1v-9v-1v-114v-1v-9v-1V84l-33-9.4V70h72v4.6L228,84
	v2.5v1v9v1v114v1v9v1v1.5l33,37.7v4.3H189z M265,266v-4.3l33-37.7v-1.5v-1v-9v-1v-114v-1v-9v-1V84l-33-9.4V70h72v4.6L304,84v2.5v1v9
	v1v114v1v9v1v1.5l33,37.7v4.3H265z M341,266v-4.3l33-37.7v-1.5v-1v-9v-1v-114v-1v-9v-1V84l-33-9.4V70h72v4.6L380,84v2.5v1v9v1v114v1
	v9v1v1.5l33,37.7v4.3H341z M415,257.9l-31-35.4h62L415,257.9z M384,221.5v-9h62v9H384z M384,211.5v-114h62v114H384z M384,96.5v-9h62
	v9H384z M385.8,86.5l29.2-8.3l29.2,8.3H385.8z M417,266v-4.3l33-37.7v-1.5v-1v-9v-1v-114v-1v-9v-1V84l-33-9.4V70h33v-4h-62.1
	L464,30.1V36v4v6h4v-6h2v190h-14v36H417z M460,266v-32h32v32H460z"/>
</svg>
