<?xml version="1.0" encoding="utf-8"?>
<!-- Generator: Adobe Illustrator 21.1.0, SVG Export Plug-In . SVG Version: 6.00 Build 0)  -->
<svg version="1.1" id="Слой_29" xmlns="http://www.w3.org/2000/svg" xmlns:xlink="http://www.w3.org/1999/xlink" x="0px"
	 y="0px" viewBox="0 0 500 270" style="enable-background:new 0 0 500 270;" xml:space="preserve">
<style type="text/css">
	.st0{fill:#4F9799;}
</style>
<g>
	<path class="st0" d="M27.5,184h14.9c0.7-1.1,1.6-2.1,2.7-3l9.9-8.4c4.3-3.6,9.7-5.6,15.2-5.6c1,0,1.8-0.8,1.8-1.8v-34v-11.5v-12
		c0-3.6-3-6.6-6.6-6.6H40.1c-2.5,0-4.7,1.5-5.5,3.9l-12.1,32.6c-0.4,1-0.5,2-0.5,3.1v4.8v2.9v30.2C22,181.6,24.5,184,27.5,184z
		 M26,140.6c0-0.6,0.1-1.1,0.3-1.7l12.1-32.6c0.3-0.7,1-1.2,1.8-1.2h25.2c1.4,0,2.6,1.2,2.6,2.6v23.5c0,0.9-0.5,1.8-1.3,2.3
		l-29.8,17.2c-0.4,0.2-0.8,0.3-1.3,0.3h-6.9c-1.5,0-2.7-1.2-2.7-2.7V140.6z M23,151.8c1.2,1.9,3.3,3.2,5.7,3.2h6.9
		c1.2,0,2.3-0.3,3.3-0.9l29.8-17.2c1-0.6,1.7-1.3,2.3-2.2v30.6c0,0.4-0.4,0.8-0.8,0.8c-5.8,0-11.5,2.1-15.9,5.8l-9.9,8.4
		c-1,0.8-1.8,1.7-2.5,2.7H27.5c-2.5,0-4.5-2-4.5-4.5V151.8z"/>
	<path class="st0" d="M110.5,235c0-0.7,0-1.3-0.1-2h9c0,0.7,0.1,1.3,0.1,2c0,2.4-0.2,4.7-0.6,7h1c0.4-2.3,0.6-4.6,0.6-7
		c0-1.7-0.1-3.4-0.3-5h38.6c-0.2,1.6-0.3,3.3-0.3,5c0,2.4,0.2,4.7,0.6,7h1c-0.4-2.3-0.6-4.6-0.6-7c0-0.7,0-1.3,0.1-2h9
		c0,0.7-0.1,1.3-0.1,2c0,17.1,13.9,31,31,31c17.1,0,31-13.9,31-31c0-0.7,0-1.3-0.1-2h9c0,0.7,0.1,1.3,0.1,2c0,2.4-0.2,4.7-0.6,7h1
		c0.4-2.3,0.6-4.6,0.6-7c0-1.7-0.1-3.4-0.3-5h48.6c-0.1,0.7-0.1,1.3-0.2,2h-0.4c0.1,0.3,0.2,0.7,0.2,1h0.1c0,0.7-0.1,1.3-0.1,2
		c0,2.4,0.2,4.7,0.6,7h1c-0.4-2.3-0.6-4.6-0.6-7c0-0.7,0-1.3,0.1-2h9c0,0.7-0.1,1.3-0.1,2c0,17.1,13.9,31,31,31s31-13.9,31-31
		c0-0.7,0-1.3-0.1-2h18.1c0,0.7-0.1,1.3-0.1,2c0,17.1,13.9,31,31,31c17.1,0,31-13.9,31-31c0-0.7,0-1.3-0.1-2h9c0,0.7,0.1,1.3,0.1,2
		c0,2.4-0.2,4.7-0.6,7h1c0.4-2.3,0.6-4.6,0.6-7c0-0.7,0-1.3-0.1-2H470v-1h-19.6c0-0.7-0.1-1.3-0.2-2h7.6c-2.4-23.6-22.4-42-46.6-42
		H390v-8v-4v-16v-4v-11.2l20.4-8.8l2,0l0-0.8l45.6-19.7v0c1.1-24.7-4.5-49.3-16.2-71.2L413,45.4l-0.1-0.2l-0.4,0.2l-98.1,3.8
		c0-0.1,0-0.1-0.1-0.2l-0.5,0.2l-78,17.7l-0.5,0c0,0.1,0,0.1,0,0.2l-69.5,30.1v0c0.2,25.6,5,50.9,14.1,74.8h-6.5
		c-9.1-23-11.8-48.5-12.4-55.2c1.5-2.9,2.4-6.2,2.4-9.7c0-11.7-9.5-21.3-21.3-21.3c-11.7,0-21.3,9.5-21.3,21.3
		c0,10.5,7.6,19.2,17.6,20.9l9.5,7.6l3.2,26.9h-7v20.4h-4.1V200h-19.6c0-5.4-3.6-10-8.5-11.5v-16.5v-1V89.5c0-1.9-1.6-3.5-3.5-3.5
		H87.3h-2.7H50v-5c0-2.8-2.2-5-5-5s-5,2.2-5,5v5h-2.8c-0.5,0-1,0-1.4,0.1c0,0,0-0.1,0-0.1h-2.2c-0.4,0-0.7,0.1-1,0.3l-15.7,8.9
		c-1.8,1-1.1,3.9,1,3.9H25L9,142v45c0,0.9,0.2,1.7,0.6,2.4c-5.4,2.4-9.2,7.6-9.6,13.8c0,0.2-0.1,0.3-0.1,0.5v0.5v1.3v4.4l30,30h8.8
		c0.1,0.7,0.2,1.3,0.3,2h1c-0.4-2.3-0.6-4.6-0.6-7c0-0.7,0-1.3,0.1-2h9c0,0.7-0.1,1.3-0.1,2c0,17.1,13.9,31,31,31
		C96.6,266,110.5,252.1,110.5,235z M199.5,262c-14.9,0-27-12.1-27-27c0-14.9,12.1-27,27-27s27,12.1,27,27
		C226.5,249.9,214.4,262,199.5,262z M230.4,232c-1.5-15.7-14.7-28-30.9-28c-16.1,0-29.3,12.3-30.9,28h-9c1.5-20.7,18.8-37,39.9-37
		s38.3,16.3,39.9,37H230.4z M173.9,203c0.7-0.7,1.5-1.3,2.3-1.7C175.4,201.8,174.6,202.4,173.9,203z M199.5,194
		c-4.5,0-8.8,0.7-12.8,2c-0.7-0.9-1.4-1.8-2.1-2.7h105.9c-1.3,1.9-2,4.2-2,6.7h-67.6C214.6,196.2,207.3,194,199.5,194z M329.5,262
		c-14.9,0-27-12.1-27-27c0-14.9,12.1-27,27-27c14.9,0,27,12.1,27,27C356.5,249.9,344.4,262,329.5,262z M409.5,262
		c-14.9,0-27-12.1-27-27c0-14.9,12.1-27,27-27c14.9,0,27,12.1,27,27C436.5,249.9,424.4,262,409.5,262z M440.4,232
		c-1.5-15.7-14.7-28-30.9-28c-16.1,0-29.3,12.3-30.9,28h-18.3c-1.5-15.7-14.7-28-30.9-28s-29.3,12.3-30.9,28h-9
		c1.5-20.7,18.8-37,39.9-37h80c21,0,38.3,16.3,39.9,37H440.4z M440,203.1c6.7,6.1,11.3,14.1,13.1,22.9h-3.6c-4.1-18.3-20.4-32-40-32
		h-80c-19.6,0-35.9,13.7-40,32h-50c-2-8.7-6.7-16.4-13.2-22h62.2c2.2,0,4-1.8,4-4c0-4.4,3.6-8,8-8h110.7
		C421.8,192,432.1,195.9,440,203.1z M261.8,180l-0.5,0c-1.5-3.8-3-7.7-4.4-11.5l0,0l0,0l1.8-0.1l3.2-0.7l0,0l1-0.2l0,0l5-1.1l0,0
		l1-0.2l0,0l2.4-0.5l0.6-0.1l0,0l2-0.5l0,0l0.8-0.2l2.7-0.6l0.5-0.1l0,0l2-0.5l0,0l0.5-0.1l3-0.7l0.5-0.1l0,0l2-0.5l0,0l0.2-0.1
		l3.4-0.8l0.4-0.1l0,0l5-1.1l0,0l1-0.2l0,0l5-1.1l0,0l1-0.2l0,0l5-1.1l0,0l1-0.2l0,0l5-1.1l0,0l1-0.2l0,0l5-1.1l0,0l1-0.2l0,0l5-1.1
		l0,0l1-0.2l0,0l5-1.1l0,0l1-0.2l2.4-0.6l0.6-0.1l0,0l1.8-0.4l0.2-0.1l0,0l1-0.4l0,0l0.5-0.2c0.4,4.1,0.8,8.2,1.1,12.3l-0.5,0.2
		L261.8,180z M253,79.5v28.7l-2,0.5V79.9L253,79.5z M274,74.7v28.7l-2,0.5V75.2L274,74.7z M280,73.4v28.7l-2,0.5V73.8L280,73.4z
		 M301,68.6v28.7l-2,0.5V69L301,68.6z M325,64.5v14.5c-0.6-2.1-1.3-4.1-2-6.2v-8.2L325,64.5z M337,64v26.2l-2,0.3V64.1L337,64z
		 M346,63.6v25.2l-2,0.3V63.7L346,63.6z M349,63.4v24.9l-2,0.3V63.5L349,63.4z M358,63v24l-2,0.3V63.1L358,63z M361,62.9v23.6
		l-2,0.3V63L361,62.9z M370,62.5v22.7l-2,0.3V62.6L370,62.5z M373,62.3v22.4l-2,0.3V62.4L373,62.3z M382,61.9v21.4l-2,0.3V62
		L382,61.9z M385,61.8v21.1l-2,0.3V61.9L385,61.8z M394,61.4v20.2l-2,0.3V61.5L394,61.4z M413.8,49.4c10.8,22.9,16.5,48.3,16.6,73.7
		l-18,7.8c-0.8-27.7-7.2-55.4-18.5-80.7L413.8,49.4z M340.6,161.8c-0.3-4.1-0.6-8.2-1.1-12.3l0.5-0.2l0,0l0.2-0.1l17.8-7.6l0,0
		l1-0.4l0,0l2-0.8l0,0l1-0.4l0,0l45.7-19.4c0.3,4,0.5,7.9,0.6,11.9L340.6,161.8z M332,150.8V122l2-0.6v29L332,150.8z M287,161v-28.7
		l2-0.5v28.7L287,161z M281,162.4v-28.7l2-0.5v28.7L281,162.4z M275,163.7V135l2-0.5v28.7L275,163.7z M269,165.1v-28.7l2-0.5v28.7
		L269,165.1z M239,168.2v-26.1l2-0.3v26.3L239,168.2z M236,168.3v-25.7l2-0.3v26L236,168.3z M221,168.9v-24.1l2-0.3v24.3L221,168.9z
		 M218,169v-23.8l2-0.3v24L218,169z M215,169.2v-23.5l2-0.3v23.7L215,169.2z M203,169.6v-22.2l2-0.3v22.4L203,169.6z M200,169.7
		v-21.8l2-0.3v22L200,169.7z M197,169.9v-21.5l2-0.3v21.7L197,169.9z M183.5,170.4c-0.5-1.3-1-2.6-1.5-3.9v-15.9l2-0.3v20.1
		L183.5,170.4z M178,154.1c-0.3-0.9-0.5-1.8-0.8-2.8l0.8-0.1V154.1z M179,151l2-0.3v12.9c-0.7-2-1.4-4.1-2-6.2V151z M185,150.1
		l2-0.3v20.4l-2,0.1V150.1z M188,149.7l2-0.3v20.7l-2,0.1V149.7z M191,149.2l2-0.3V170l-2,0.1V149.2z M194,148.8l2-0.3v21.4l-2,0.1
		V148.8z M206,147l2-0.3v22.7l-2,0.1V147z M209,146.6l2-0.3v23l-2,0.1V146.6z M212,146.1l2-0.3v23.3l-2,0.1V146.1z M224,144.4l2-0.3
		v24.7l-2,0.1V144.4z M227,143.9l2-0.3v25l-2,0.1V143.9z M230,143.5l2-0.3v25.3l-2,0.1V143.5z M233,143l2-0.3v25.6l-2,0.1V143z
		 M242,141.7l2-0.3V168l-2,0.1V141.7z M245,141.3l2-0.3v26.9l-2,0.1V141.3z M244.6,111.2l0.4-0.1l0,0l0.7-0.2l1.3-0.3l0,0l1-0.2l0,0
		l5-1.1l0,0l1-0.2l2.5-0.6l0.6-0.1l0,0l2-0.5l0,0l0.6-0.1l2.9-0.7l0.5-0.1l0,0l2-0.5l0,0l0.2,0l3.4-0.8l0.4-0.1l0,0l5.7-1.3l0.3-0.1
		l0,0l5-1.1l0,0l1-0.2l0,0l5-1.1l0,0l1-0.2l0,0l5-1.1l0,0l1-0.2l0,0l5-1.1l0,0l1-0.2l5-1.1l0,0l0.6-0.1l5.4-1.2l0,0l0.2,0l9.5-2.2
		L320,94l0,0l3.7-0.9l1.7-0.3l0.6-0.1l0,0l1.9-0.3c2.5,9.1,4.6,18.4,6.3,27.7l-0.2,0.1v0l-2,0.6v0l-1,0.3v0l-0.8,0.3l-1.2,0.3v0
		l-1,0.2v0l-2,0.5v0l-1,0.2v0l-2,0.5v0l-1,0.2v0l-2,0.5v0l-1,0.2v0l-2,0.5v0l-1,0.2v0l-2,0.5v0l-1,0.2v0l-2,0.5v0l-1,0.2v0l-2,0.5v0
		l-1,0.2l0,0l-2,0.5v0l-1,0.2v0l-2,0.5v0l-1,0.2l0,0l-2,0.5v0l-1,0.2v0l-2,0.5l0,0l-1,0.2v0l-2,0.5v0l-1,0.2v0l-2,0.5l0,0l-1,0.2v0
		l-2,0.5v0l-1,0.2v0l-2,0.5l0,0l-1,0.2v0l-2,0.5v0l-1,0.2l0,0l-2,0.5v0l-1,0.2v0l-2,0.5l0,0l-1,0.2l0,0l-2,0.5v0l-1,0.2v0l-2,0.5
		l0,0l-1,0.2l0,0l-2,0.5v0l-1,0.2v0l-2,0.5l0,0l-1,0.2l0,0l-2,0.5v0l-1,0.2l0,0l-2,0.5l0,0l-0.6,0.1l-2.4,0.6v0l-1,0.2l0,0l-0.8,0.2
		l-1.2,0.2l0,0l-1,0.1l0,0l-2,0.3v0l0,0c-2.4-9.1-4.5-18.4-6.3-27.7L244.6,111.2z M331.9,91.9l0.1,0l0,0l2-0.3l0,0l0.9-0.1l2.1-0.3
		l0,0l0.6-0.1l2.4-0.4l0,0l0.2,0l9.3-1.4l0.5-0.1l0,0l2.7-0.4l0.3,0l0,0l2.9-0.4l0.1,0l0,0l2-0.3l0,0l0.8-0.1l2.2-0.3l0,0l0.5-0.1
		l2.5-0.4l0,0l0.2,0l9.3-1.4l0.5-0.1l0,0l2.7-0.4l0.3,0l0,0l2.9-0.4l0.1,0l0,0l2-0.3l0,0l0.8-0.1l2.2-0.3l0,0l0.4-0.1l2.6-0.4l0,0
		l0.1,0l9.4-1.4L398,82l0,0l2.8-0.4l0,0c1.6,5.6,2.9,11.3,4,17.1l-0.8,0.2l0,0l-1,0.3l0,0l-2,0.6l0,0l-1,0.3l0,0l-2,0.6l0,0l-1,0.3
		l0,0l-2,0.6l0,0l-1,0.3l0,0l-2,0.6l0,0l-1,0.3l0,0l-2,0.6l0,0l-1,0.3l0,0l-2,0.6l0,0l-1,0.3l0,0l-2,0.6l0,0l-1,0.3l0,0l-2,0.6l0,0
		l-1,0.3l0,0l-2,0.6l0,0l-1,0.3l0,0l-2,0.6l0,0l-1,0.3l0,0l-2,0.6l0,0l-1,0.3l0,0l-2,0.6l0,0l-1,0.3l0,0l-2,0.6v0l-1,0.3v0l-2,0.6v0
		l-1,0.3v0l-2,0.6v0l-1,0.3v0l-2,0.6v0l-1,0.3v0l-2,0.6v0l-1,0.3v0l-2,0.6v0l-1,0.3v0l-2,0.6v0l-1,0.3v0l-2,0.6v0l-1,0.3v0l-2,0.6v0
		l-1,0.3v0l-2,0.6v0l-1,0.3v0l-1.8,0.6c-1.7-9.3-3.8-18.5-6.3-27.6l0.1,0l0,0L331.9,91.9z M398,81v-8.7c0.7,2.1,1.4,4.3,2,6.4v2
		L398,81z M397,69.2v11.9l-2,0.3V63.7C395.7,65.5,396.4,67.4,397,69.2z M341,147.9v-28.7l2-0.6V147L341,147.9z M344,118.3l2-0.6
		v28.1l-2,0.8V118.3z M347,117.4l2-0.6v27.7l-2,0.8V117.4z M350,116.4l2-0.6v27.4l-2,0.8V116.4z M353,115.5l2-0.6v27l-2,0.8V115.5z
		 M356,114.6l2-0.6v26.7l-2,0.8V114.6z M359,113.7l2-0.6v26.3l-2,0.8V113.7z M362,112.8l2-0.6v26l-2,0.8V112.8z M365,111.8l2-0.6
		v25.6l-2,0.8V111.8z M368,110.9l2-0.6v25.3l-2,0.8V110.9z M371,110l2-0.6v24.9l-2,0.8V110z M374,109.1l2-0.6V133l-2,0.8V109.1z
		 M377,108.2l2-0.6v24.2l-2,0.8V108.2z M380,107.2l2-0.6v23.8l-2,0.8V107.2z M383,106.3l2-0.6v23.5l-2,0.8V106.3z M386,105.4l2-0.6
		v23.1l-2,0.8V105.4z M389,104.5l2-0.6v22.8l-2,0.8V104.5z M392,103.6l2-0.6v22.4l-2,0.8V103.6z M395,102.6l2-0.6v22.1l-2,0.8V102.6
		z M398,101.7l2-0.6v21.7l-2,0.8V101.7z M401,100.8l2-0.6v21.4l-2,0.8V100.8z M404,99.9l0.9-0.3c0.4,2.1,0.7,4.1,1.1,6.2v14.5
		l-2,0.8V99.9z M407,113.2c0.2,2.1,0.5,4.3,0.6,6.4l-0.6,0.3V113.2z M337,120.4v10.1c-0.5-3.2-1-6.4-1.6-9.6L337,120.4z M325,92
		l-1.4,0.2l0,0l0,0l-0.5,0.1V76.1c0.7,2.1,1.4,4.3,2,6.4V92z M326,85.8c0.6,1.9,1.1,3.8,1.6,5.7l-1.6,0.2V85.8z M322,92.5l-2,0.5
		V67.2c0.7,1.9,1.4,3.9,2,5.9V92.5z M251,140.4l1.3-0.2l0,0l0,0l0.6-0.1v16.8c-0.7-2.1-1.4-4.3-2-6.5V140.4z M250,147
		c-0.6-2.1-1.2-4.1-1.8-6.2l1.8-0.3V147z M254,139.8l2-0.5v26.4c-0.7-2-1.4-3.9-2-5.9V139.8z M248,143.6c0.6,2.3,1.3,4.6,2,6.9v17.2
		l-2,0.1V143.6z M251,153.8c0.6,2.1,1.3,4.2,2,6.2v7.6l-2,0.1V153.8z M254,163.1c0.5,1.5,1,3,1.6,4.5l-1.6,0.1V163.1z M257,139.1
		l2-0.5v28.7l-0.3,0.1l-1.7,0.1V139.1z M260,138.4l2-0.5v28.7l-2,0.5V138.4z M263,137.8l2-0.5V166l-2,0.5V137.8z M266,137.1l2-0.5
		v28.7l-2,0.5V137.1z M272,135.7l2-0.5V164l-2,0.5V135.7z M278,134.4l2-0.5v28.7l-2,0.5V134.4z M284,133l2-0.5v28.7l-2,0.5V133z
		 M290,131.6l2-0.5v28.7l-2,0.5V131.6z M293,130.9l2-0.5v28.7l-2,0.5V130.9z M296,130.3l2-0.5v28.7l-2,0.5V130.3z M299,129.6l2-0.5
		v28.7l-2,0.5V129.6z M302,128.9l2-0.5v28.7l-2,0.5V128.9z M305,128.2l2-0.5v28.7l-2,0.5V128.2z M308,127.5l2-0.5v28.7l-2,0.5V127.5
		z M311,126.9l2-0.5v28.7l-2,0.5V126.9z M314,126.2l2-0.5v28.7l-2,0.5V126.2z M317,125.5l2-0.5v28.7l-2,0.5V125.5z M320,124.8l2-0.5
		v28.7l-2,0.5V124.8z M323,124.1l2-0.5v28.7l-2,0.5V124.1z M326,123.4l2-0.5v28.7l-2,0.5V123.4z M329,122.8l1.4-0.3l0,0l0,0l0.5-0.2
		V151l-2,0.5V122.8z M335,124.6c0.7,4.2,1.4,8.4,2,12.7v12.3l-0.5,0.2l-1.5,0.3V124.6z M338,145.1c0.1,1.3,0.3,2.5,0.4,3.8l-0.4,0.2
		V145.1z M338,137.2v-17.1l2-0.6v28.8l-0.6,0.3C339,144.8,338.5,141,338,137.2z M391,82l-2,0.3V61.6l2-0.1V82z M388,82.5l-2,0.3v-21
		l2-0.1V82.5z M379,83.8l-2,0.3v-22l2-0.1V83.8z M376,84.3l-2,0.3V62.3l2-0.1V84.3z M367,85.6l-2,0.3V62.7l2-0.1V85.6z M364,86.1
		l-2,0.3V62.8l2-0.1V86.1z M355,87.4l-2,0.3V63.3l2-0.1V87.4z M352,87.9l-2,0.3V63.4l2-0.1V87.9z M343,89.2l-2,0.3V63.8l2-0.1V89.2z
		 M340,89.7l-2,0.3V63.9l2-0.1V89.7z M334,90.6l-2,0.3V64.2l2-0.1V90.6z M331,91l-2,0.3v-27l2-0.1V91z M328,89.2
		c-0.6-2.3-1.3-4.6-2-6.9V64.5l2-0.1V89.2z M322,69.8c-0.6-1.7-1.2-3.4-1.8-5.1l1.8-0.1V69.8z M319,93.2l-2,0.5V64.9l0.2-0.1
		l1.8-0.1V93.2z M316,93.9l-2,0.5V65.6l2-0.5V93.9z M313,94.6l-2,0.5V66.3l2-0.5V94.6z M310,95.3l-2,0.5V67l2-0.5V95.3z M307,95.9
		l-2,0.5V67.7l2-0.5V95.9z M304,96.6l-2,0.5V68.4l2-0.5V96.6z M298,98l-2,0.5V69.7l2-0.5V98z M295,98.7l-2,0.5V70.4l2-0.5V98.7z
		 M292,99.3l-2,0.5V71.1l2-0.5V99.3z M289,100l-2,0.5V71.8l2-0.5V100z M286,100.7l-2,0.5V72.4l2-0.5V100.7z M283,101.4l-2,0.5V73.1
		l2-0.5V101.4z M277,102.8l-2,0.5V74.5l2-0.5V102.8z M271,104.1l-2,0.5V75.9l2-0.5V104.1z M268,104.8l-2,0.5V76.5l2-0.5V104.8z
		 M265,105.5l-2,0.5V77.2l2-0.5V105.5z M262,106.2l-2,0.5V77.9l2-0.5V106.2z M259,106.8l-2,0.5V78.6l2-0.5V106.8z M256,107.5l-2,0.5
		V79.3l2-0.5V107.5z M250,108.9l-2,0.5V80.6l2-0.5V108.9z M247,109.6l-1.5,0.3l0,0l0,0l-0.4,0.1V81.3l2-0.5V109.6z M244,110.4
		l-2,0.6V82l2-0.5V110.4z M241,108c-0.7-4.3-1.4-8.6-2-12.9V82.8l0.4-0.2l1.6-0.4V108z M240.6,111.4l-1.6,0.5v-10
		C239.5,105.1,240,108.3,240.6,111.4z M238,87c-0.1-1.2-0.3-2.5-0.4-3.7l0.4-0.2V87z M238,95.1v17.1l-2,0.6V84.1l0.6-0.3
		C237,87.6,237.5,91.4,238,95.1z M235,113.2l-2,0.6V85.3l2-0.9V113.2z M232,114.1l-2,0.6V86.6l2-0.9V114.1z M229,115l-2,0.6V87.9
		l2-0.9V115z M226,115.9l-2,0.6V89.2l2-0.9V115.9z M223,116.9l-2,0.6v-27l2-0.9V116.9z M220,117.8l-2,0.6V91.8l2-0.9V117.8z
		 M217,118.7l-2,0.6V93.1l2-0.9V118.7z M214,119.7l-2,0.6V94.4l2-0.9V119.7z M211,120.6l-2,0.6V95.7l2-0.9V120.6z M208,121.5l-2,0.6
		V97l2-0.9V121.5z M205,122.4l-2,0.6V98.3l2-0.9V122.4z M202,123.4l-2,0.6V99.6l2-0.9V123.4z M199,124.3l-2,0.6v-24l2-0.9V124.3z
		 M196,125.2l-2,0.6v-23.6l2-0.9V125.2z M193,126.2l-2,0.6v-23.3l2-0.9V126.2z M190,127.1l-2,0.6v-22.9l2-0.9V127.1z M187,128
		l-2,0.6v-22.5l2-0.9V128z M184,129l-2,0.6v-22.2l2-0.9V129z M181,129.9l-2,0.6v-21.8l2-0.9V129.9z M178,130.8l-2,0.6V110l2-0.9
		V130.8z M175,131.7l-2,0.6v-21.1l2-0.9V131.7z M172,126.5c-0.7-4.7-1.2-9.4-1.6-14.1l1.6-0.7V126.5z M178,131.9L178,131.9l1-0.3
		l0,0l5-1.5l0,0l1-0.3l0,0l5-1.5l0,0l0.8-0.3l2.7-0.8l0.5-0.2l0,0l2-0.6l0,0l0.4-0.1l3.1-1l0.4-0.1l0,0l2-0.6l0,0l0.1,0l2.9-0.9l0,0
		l1-0.3l0,0l5-1.5l0,0l1-0.3l0,0l5-1.5l0,0l1-0.3l0,0l5-1.5l0,0l1-0.3l0,0l5-1.5l0,0l1-0.3l0,0l2.4-0.7l0.6-0.2l0,0l2-0.6l0,0
		l0.8-0.3l2.7-0.8l0.5-0.2l0,0l1.8-0.5c1.7,9.3,3.8,18.4,6.2,27.5l-2,0.3l0,0l-1,0.1l0,0l-2.8,0.4l-0.2,0l0,0l-2,0.3l0,0l-1,0.1v0
		l-2,0.3l0,0l-1,0.1l0,0l-2,0.3v0l-1,0.1v0l-2,0.3l0,0l-1,0.1l0,0l-2,0.3v0l-1,0.1l-2,0.3l0,0l-1,0.1v0l-2,0.3v0l-1,0.1l0,0l-2,0.3
		v0l-1,0.1v0l-2,0.3l0,0l-1,0.1l0,0l-2,0.3v0l-1,0.1v0l-2,0.3l0,0l-1,0.1v0l-2,0.3v0l-1,0.1v0l-2,0.3l0,0l-1,0.1v0l-2,0.3v0l-1,0.1
		l0,0l-2,0.3v0l-1,0.1v0l-2,0.3v0l-1,0.1l0,0l-2,0.3v0l-1,0.1v0l-2,0.3l0,0l-1,0.1v0l-2,0.3v0l-1,0.1v0l-2,0.3v0l-1,0.1v0l-2,0.3v0
		l-1,0.1v0l-1,0.2c-1.5-5.6-2.8-11.3-3.8-17L178,131.9z M184.4,171.4l0.6,0l0,0l2-0.1l0,0l1,0l0,0l2-0.1l0,0l0.3,0l2.7-0.1l0,0
		l0.6,0l6.3-0.2l0.2,0l0,0l2.4-0.1l0.6,0l0,0l2-0.1l1,0l0,0l2-0.1l0,0l0.3,0l2.7-0.1l0,0l0.5,0l6.4-0.2l0.1,0l0,0l2.5-0.1l0.5,0l0,0
		l2.1-0.1l0.9,0l0,0l2-0.1l0,0l0.2,0l2.8-0.1l0,0l0.5,0l2.5-0.1l0,0l0.7,0l5.9-0.2l0.4,0l0,0l2.2-0.1l0.8,0l0,0l2-0.1l0,0l1,0l0,0
		l2-0.1l0,0l0.4,0l2.6-0.1l0,0l0.7,0l5.2-0.2c1.4,3.9,2.8,7.7,4.3,11.5l-71.6,2.8c-1.7-3.8-3.3-7.6-4.8-11.5L184.4,171.4z
		 M340.4,166.3l0.5,0c0-0.1,0-0.1,0-0.2l25.1-10.9v0.8v4v16v4v8h-10.5v-15.9H315L340.4,166.3z M386,188h-16v-8h16V188z M386,176h-16
		v-16h16V176z M386,156h-16v-2.5l16-6.9V156z M454.1,112.8l-22.8,9.8c-0.1-25.2-5.7-50.4-16.5-73.3l24.6-1
		C449.6,68.3,454.7,90.4,454.1,112.8z M389.4,50.3c1.5,3.3,3,6.7,4.3,10.1l-2.1,0.1l-0.6,0l0,0l-2,0.1l0,0l-0.1,0l-2.9,0.1l0,0
		l-0.6,0l-3.4,0.2l-0.1,0l0,0l-2.3,0.1l-0.7,0l0,0l-2,0.1l0,0l-0.2,0l-2.8,0.1l0,0l-0.7,0l-3.2,0.1l-0.1,0l0,0l-2.2,0.1l-0.8,0l0,0
		l-2,0.1l0,0l-0.3,0l-2.7,0.1l0,0l-0.7,0l-3.1,0.1l-0.2,0l0,0l-2.2,0.1l-0.8,0l0,0l-2,0.1l0,0l-0.3,0l-2.7,0.1l0,0l-0.8,0l-2.9,0.1
		l-0.3,0l0,0l-2.1,0.1l-0.9,0l0,0l-2,0.1l0,0l-0.4,0l-2.6,0.1l0,0l-0.8,0l-2.8,0.1l-0.4,0l0,0l-2,0.1l0,0l-1,0l0,0l-2,0.1l0,0
		l-0.5,0l-6.1,0.3l-0.5,0l0,0l-2,0.1l0,0l-0.1,0c-1.3-3.5-2.6-7.1-4-10.6L389.4,50.3z M314.3,53.3l0.5,0c1.4,3.5,2.7,7,4,10.6
		l-1.7,0.1l-3.1,0.7l0,0l-1,0.2l0,0l-5,1.1l0,0l-1,0.2l0,0l-5,1.1l0,0l-0.8,0.2l-2.7,0.6l-0.5,0.1l0,0l-2,0.5l0,0l-0.2,0l-2.8,0.6
		l0,0l-1,0.2l0,0l-5,1.1l0,0l-1,0.2l0,0l-5,1.1l0,0l-1,0.2l0,0l-2.4,0.6L277,73l0,0l-2,0.5l0,0l-0.5,0.1l-3.1,0.7l-0.4,0.1l0,0
		l-5,1.1l0,0l-1,0.2l0,0l-5,1.1l0,0l-1,0.2l0,0l-5,1.1l0,0l-0.8,0.2l-2.7,0.6l-0.5,0.1l0,0l-2,0.5l0,0l-0.1,0l-2.9,0.7l0,0l-1,0.2
		l0,0l-4.9,1.1l-1.6,0.7c-0.4-3.8-0.7-7.5-0.9-11.3l0.5-0.2L314.3,53.3z M235.6,71.4c0.3,3.8,0.6,7.5,1,11.3l-18.5,8l0,0l0,0l-3,1.3
		l0,0l-0.1,0l-2.9,1.3l0,0l-0.1,0.1l-2.9,1.2l0,0l-0.2,0.1l-2.8,1.2l0,0l-0.3,0.1l-2.7,1.2l0,0l-0.4,0.2l-2.6,1.1l0,0l-0.4,0.2
		l-2.6,1.1l0,0l-0.5,0.2l-2.5,1.1l0,0l-0.6,0.2l-2.4,1l0,0l-0.6,0.3l-2.4,1l0,0l-0.7,0.3l-2.3,1l0,0l-0.8,0.3l-2.2,1l0,0l-0.9,0.4
		l-2.1,0.9l0,0l-0.9,0.4l-2.1,0.9l0,0l-1,0.4l0,0l-2,0.9l0,0l-1,0.4l0,0l-1.7,0.7c-0.3-3.8-0.5-7.6-0.6-11.5L235.6,71.4z
		 M180.2,173.1c1.8,4.7,3.8,9.3,5.9,13.9v0l75.7-2.9c0,0.1,0,0.1,0.1,0.2l0.5-0.2h0l48.2-11h43.9V188h-54c-3.7,0-7,1.7-9.2,4.3H184
		v0.1c-4.1-5.8-7.4-12.5-10.2-19.4H180.2z M124.8,107.1c0-9.5,7.7-17.3,17.3-17.3c9.5,0,17.3,7.7,17.3,17.3
		c0,9.5-7.7,17.3-17.3,17.3C132.6,124.4,124.8,116.6,124.8,107.1z M145.2,163.5h6.1l2.2,18.7v0.7h-8.3V163.5z M144.1,186.8h14
		l-6.4-53.3l-6.7-5.4c6.4-0.9,11.8-4.6,15.1-9.8c1.1,11.8,6.4,54,25.6,78.1c-2.7,1-5.2,2.2-7.6,3.6h-34.1V186.8z M116.5,200
		c0,2.2,1.8,4,4,4h52.2c-6.5,5.6-11.2,13.3-13.2,22h-40c-3.1-13.9-13.3-25.1-26.5-29.7c0,0,0,0,0,0V192h15.9
		C113.1,192.2,116.5,195.7,116.5,200z M49,206.1v-14.2c0-1.5,0.7-3,1.8-4l10.4-8.9c2.3-2,5.2-3,8.3-3h18.8c2,0,3.6,1.6,3.6,3.6v15.3
		c-4-1.3-8.2-1.9-12.5-1.9C67.9,193,56.9,197.8,49,206.1z M91.2,176c0,0,0.1,0.1,0.1,0.1C91.3,176.1,91.3,176,91.2,176z M89.2,175.1
		c-0.3,0-0.5-0.1-0.8-0.1C88.7,175,88.9,175,89.2,175.1z M90.7,175.7c-0.1-0.1-0.3-0.2-0.4-0.2C90.5,175.5,90.6,175.6,90.7,175.7z
		 M90,175.3c-0.2-0.1-0.4-0.2-0.7-0.2C89.6,175.2,89.8,175.2,90,175.3z M67.1,175.2c0.8-0.1,1.6-0.2,2.4-0.2h0
		C68.7,175,67.9,175.1,67.1,175.2z M48.9,188.7c0.2-0.4,0.5-0.7,0.8-1.1C49.4,187.9,49.1,188.3,48.9,188.7z M49.6,206.9
		c-0.1,0.1-0.2,0.2-0.3,0.3C49.5,207.1,49.6,207,49.6,206.9z M51.2,205.3c-0.1,0.1-0.3,0.2-0.4,0.4C51,205.5,51.1,205.4,51.2,205.3z
		 M77.3,194.1c-0.2,0-0.5,0-0.7,0.1C76.8,194.1,77,194.1,77.3,194.1z M75,194.2c-0.3,0-0.6,0.1-0.8,0.1
		C74.5,194.3,74.8,194.3,75,194.2z M72.9,194.5c-0.3,0-0.6,0.1-0.9,0.2C72.3,194.6,72.6,194.6,72.9,194.5z M70.7,195
		c-0.3,0.1-0.6,0.1-0.8,0.2C70.1,195.1,70.4,195,70.7,195z M68.6,195.5c-0.3,0.1-0.5,0.1-0.8,0.2C68,195.6,68.3,195.6,68.6,195.5z
		 M66.5,196.1c-0.2,0.1-0.5,0.2-0.7,0.2C66,196.3,66.2,196.2,66.5,196.1z M64.3,196.9c-0.2,0.1-0.4,0.1-0.6,0.2
		C63.9,197.1,64.1,197,64.3,196.9z M61.9,198C61.9,198,61.8,198,61.9,198C61.8,198,61.9,198,61.9,198z M59.9,199
		C59.8,199,59.8,199,59.9,199C59.8,199,59.8,199,59.9,199z M58,200.1c-0.1,0.1-0.3,0.2-0.4,0.2C57.8,200.2,57.9,200.2,58,200.1z
		 M56.2,201.2c-0.2,0.1-0.3,0.2-0.5,0.3C55.9,201.5,56.1,201.3,56.2,201.2z M54.5,202.5c-0.2,0.1-0.3,0.2-0.5,0.4
		C54.2,202.7,54.4,202.6,54.5,202.5z M52.9,203.9c-0.1,0.1-0.3,0.3-0.4,0.4C52.6,204.1,52.7,204,52.9,203.9z M81.4,194
		c-0.6,0-1.3,0-1.9,0C80.2,194,80.8,194,81.4,194z M88.2,194.9C88.2,194.9,88.1,194.9,88.2,194.9C88.1,194.9,88.2,194.9,88.2,194.9z
		 M86.9,194.7c-0.2,0-0.4-0.1-0.7-0.1C86.4,194.6,86.7,194.6,86.9,194.7z M85.2,194.4c-0.3,0-0.6-0.1-0.9-0.1
		C84.6,194.3,84.9,194.4,85.2,194.4z M83.3,194.2c-0.4,0-0.8-0.1-1.2-0.1C82.6,194.1,82.9,194.1,83.3,194.2z M108,188H93v-8.4
		c0-1.1-0.4-2.1-1-2.8v-4.7h16V188z M108,171.1H92V90.7c0-0.2,0-0.4-0.1-0.7H108V171.1z M41,81c0-2.2,1.8-4,4-4s4,1.8,4,4v5h-8V81z
		 M17.8,98c-0.8,0-1-0.6-1-0.8c0-0.2-0.2-0.8,0.5-1.2l12.6-7.1c-1.2,1.1-2.1,2.5-2.7,4L25.4,98H17.8z M14,188c-0.6,0-1-0.5-1-1
		v-44.3l18-48.4c1-2.6,3.4-4.3,6.2-4.3h47h3.1c0.4,0,0.7,0.3,0.7,0.7V171H69.6c-4.2,0-8.3,1.5-11.5,4.2l-10.4,8.9
		c-1.3,1.1-2.2,2.4-2.8,3.9H16.3c-0.1,0-0.2,0-0.4,0H14z M4,208.3v-4.1c0-1.1,0.2-2.2,0.5-3.3H10c2.2,0,4,1.8,4,4s-1.8,4-4,4H4.7
		L4,208.3z M31.7,236l-26-26H10c2.8,0,5-2.2,5-5s-2.2-5-5-5H4.8c1.7-4.6,6-7.8,11.1-8H48v16.7c-5.9,7.1-9.5,16.3-9.5,26.2
		c0,0.3,0,0.7,0,1H31.7z M39.6,232c1.5-20.7,18.8-37,39.9-37s38.3,16.3,39.9,37h-9c-1.5-15.7-14.7-28-30.9-28
		c-16.1,0-29.3,12.3-30.9,28H39.6z M79.5,262c-14.9,0-27-12.1-27-27c0-14.9,12.1-27,27-27s27,12.1,27,27
		C106.5,249.9,94.4,262,79.5,262z"/>
	<path class="st0" d="M79.5,220c-8.3,0-15,6.7-15,15c0,8.3,6.7,15,15,15c8.3,0,15-6.7,15-15C94.5,226.7,87.8,220,79.5,220z
		 M79.5,249c-7.7,0-14-6.3-14-14c0-7.7,6.3-14,14-14s14,6.3,14,14C93.5,242.7,87.2,249,79.5,249z"/>
	<path class="st0" d="M79.5,222c-7.2,0-13,5.8-13,13s5.8,13,13,13s13-5.8,13-13S86.7,222,79.5,222z M79.5,247c-6.6,0-12-5.4-12-12
		s5.4-12,12-12s12,5.4,12,12S86.1,247,79.5,247z"/>
	<path class="st0" d="M199.5,220c-8.3,0-15,6.7-15,15c0,8.3,6.7,15,15,15c8.3,0,15-6.7,15-15C214.5,226.7,207.8,220,199.5,220z
		 M199.5,249c-7.7,0-14-6.3-14-14c0-7.7,6.3-14,14-14s14,6.3,14,14C213.5,242.7,207.2,249,199.5,249z"/>
	<path class="st0" d="M199.5,222c-7.2,0-13,5.8-13,13s5.8,13,13,13s13-5.8,13-13S206.7,222,199.5,222z M199.5,247
		c-6.6,0-12-5.4-12-12s5.4-12,12-12s12,5.4,12,12S206.1,247,199.5,247z"/>
	<path class="st0" d="M329.5,220c-8.3,0-15,6.7-15,15c0,8.3,6.7,15,15,15c8.3,0,15-6.7,15-15C344.5,226.7,337.8,220,329.5,220z
		 M329.5,249c-7.7,0-14-6.3-14-14c0-7.7,6.3-14,14-14c7.7,0,14,6.3,14,14C343.5,242.7,337.2,249,329.5,249z"/>
	<path class="st0" d="M329.5,222c-7.2,0-13,5.8-13,13s5.8,13,13,13s13-5.8,13-13S336.7,222,329.5,222z M329.5,247
		c-6.6,0-12-5.4-12-12s5.4-12,12-12s12,5.4,12,12S336.1,247,329.5,247z"/>
	<path class="st0" d="M409.5,220c-8.3,0-15,6.7-15,15c0,8.3,6.7,15,15,15c8.3,0,15-6.7,15-15C424.5,226.7,417.8,220,409.5,220z
		 M409.5,249c-7.7,0-14-6.3-14-14c0-7.7,6.3-14,14-14c7.7,0,14,6.3,14,14C423.5,242.7,417.2,249,409.5,249z"/>
	<path class="st0" d="M409.5,222c-7.2,0-13,5.8-13,13s5.8,13,13,13s13-5.8,13-13S416.7,222,409.5,222z M409.5,247
		c-6.6,0-12-5.4-12-12s5.4-12,12-12s12,5.4,12,12S416.1,247,409.5,247z"/>
	<polygon class="st0" points="329.5,266 199.5,266 79.5,266 0,266 0,270 500,270 500,266 409.5,266 	"/>
	<rect x="499" class="st0" width="1" height="1"/>
</g>
</svg>
