<?xml version="1.0" encoding="utf-8"?>
<!-- Generator: Adobe Illustrator 21.1.0, SVG Export Plug-In . SVG Version: 6.00 Build 0)  -->
<svg version="1.1" id="Слой_21" xmlns="http://www.w3.org/2000/svg" xmlns:xlink="http://www.w3.org/1999/xlink" x="0px"
	 y="0px" viewBox="0 0 500 270" style="enable-background:new 0 0 500 270;" xml:space="preserve">
<style type="text/css">
	.st0{fill:#4F9799;}
</style>
<g>
	<path class="st0" d="M490,266V64h4V50v-1v-9H350V14v-4V1V0h-1h-39h-1h-39h-1h-39h-1h-39h-1h-38h-1v1v9v4v26H6v9v1v14h4v202H0v4h10
		h180h120h180h10v-4H490z M349,1v9h-39V1H349z M309,1v9h-39V1H309z M269,1v9h-39V1H269z M229,1v9h-39V1H229z M151,1h38v9h-38V1z
		 M10,50h144v-1H10v-5h144V14h35h1h39h1h39h1h39h1h36v30h144v5H346v1h144v10H310V40H190v20H10V50z M194,190V44h112v146H194z M14,266
		V64h176v126h-10v5h10v71H14z M275,260h-23.5v-56H275V260z M250.5,260h-2v-56h2V260z M247.5,260H225v-56h22.5V260z M247.5,261h1h2h1
		H276h13v2h-78v-2h13H247.5z M290,264h9v2h-98v-2h9H290z M300,266v-3h-10v-3h-14v-57h-24.5h-1h-2h-1H224v57h-14v3h-10v3h-6v-71h112
		v71H300z M310,266v-71h10v-5h-10V64h176v202H310z"/>
	<path class="st0" d="M250,96c11,0,20-9,20-20c0-10.9-8.7-19.7-19.5-20v0H250h-0.5v0c-10.8,0.3-19.5,9.1-19.5,20
		C230,87,239,96,250,96z M250,60c8.8,0,16,7.2,16,16s-7.2,16-16,16s-16-7.2-16-16S241.2,60,250,60z"/>
	<path class="st0" d="M37,246h60v-40H37V246z M38,207h58v38H38V207z"/>
	<path class="st0" d="M37,186h60v-40H37V186z M38,147h58v38H38V147z"/>
	<path class="st0" d="M37,126h60V86H37V126z M38,87h58v38H38V87z"/>
	<path class="st0" d="M107,246h60v-40h-60V246z M108,207h58v38h-58V207z"/>
	<path class="st0" d="M107,186h60v-40h-60V186z M108,147h58v38h-58V147z"/>
	<path class="st0" d="M107,126h60V86h-60V126z M108,87h58v38h-58V87z"/>
	<path class="st0" d="M333,246h60v-40h-60V246z M334,207h58v38h-58V207z"/>
	<path class="st0" d="M333,186h60v-40h-60V186z M334,147h58v38h-58V147z"/>
	<path class="st0" d="M333,126h60V86h-60V126z M334,87h58v38h-58V87z"/>
	<path class="st0" d="M403,246h60v-40h-60V246z M404,207h58v38h-58V207z"/>
	<path class="st0" d="M403,186h60v-40h-60V186z M404,147h58v38h-58V147z"/>
	<path class="st0" d="M403,126h60V86h-60V126z M404,87h58v38h-58V87z"/>
	<rect x="37" y="248" class="st0" width="60" height="1"/>
	<rect x="107" y="248" class="st0" width="60" height="1"/>
	<rect x="333" y="248" class="st0" width="60" height="1"/>
	<rect x="403" y="248" class="st0" width="60" height="1"/>
	<rect x="37" y="188" class="st0" width="60" height="1"/>
	<rect x="107" y="188" class="st0" width="60" height="1"/>
	<rect x="333" y="188" class="st0" width="60" height="1"/>
	<rect x="403" y="188" class="st0" width="60" height="1"/>
	<rect x="37" y="128" class="st0" width="60" height="1"/>
	<rect x="107" y="128" class="st0" width="60" height="1"/>
	<rect x="333" y="128" class="st0" width="60" height="1"/>
	<rect x="403" y="128" class="st0" width="60" height="1"/>
	<path class="st0" d="M40,243h54v-34H40V243z M41,210h52v32H41V210z"/>
	<path class="st0" d="M110,243h54v-34h-54V243z M111,210h52v32h-52V210z"/>
	<path class="st0" d="M336,243h54v-34h-54V243z M337,210h52v32h-52V210z"/>
	<path class="st0" d="M406,243h54v-34h-54V243z M407,210h52v32h-52V210z"/>
	<path class="st0" d="M40,183h54v-34H40V183z M41,150h52v32H41V150z"/>
	<path class="st0" d="M110,183h54v-34h-54V183z M111,150h52v32h-52V150z"/>
	<path class="st0" d="M336,183h54v-34h-54V183z M337,150h52v32h-52V150z"/>
	<path class="st0" d="M406,183h54v-34h-54V183z M407,150h52v32h-52V150z"/>
	<path class="st0" d="M40,123h54V89H40V123z M41,90h52v32H41V90z"/>
	<path class="st0" d="M110,123h54V89h-54V123z M111,90h52v32h-52V90z"/>
	<path class="st0" d="M336,123h54V89h-54V123z M337,90h52v32h-52V90z"/>
	<path class="st0" d="M406,123h54V89h-54V123z M407,90h52v32h-52V90z"/>
	<rect x="244.5" y="232" class="st0" width="1" height="10"/>
	<rect x="253.5" y="232" class="st0" width="1" height="10"/>
	<path class="st0" d="M204,240h10v-37h-10V240z M205,204h8v35h-8V204z"/>
	<path class="st0" d="M286,240h10v-37h-10V240z M287,204h8v35h-8V204z"/>
	<path class="st0" d="M244,138h-40v17h40V138z M243,154h-38v-15h38V154z"/>
	<path class="st0" d="M256,155h40v-17h-40V155z M257,139h38v15h-38V139z"/>
	<path class="st0" d="M244,108h-40v17h40V108z M243,124h-38v-15h38V124z"/>
	<path class="st0" d="M256,108v17h40v-17H256z M295,124h-38v-15h38V124z"/>
	<path class="st0" d="M204,187h92v-22h-92V187z M205,166h90v20h-90V166z"/>
	<path class="st0" d="M258.8,84.1l-8.3-8.3V64c-0.2,0-0.3,0-0.5,0s-0.3,0-0.5,0v12.2l8.6,8.6C258.4,84.6,258.6,84.4,258.8,84.1z"/>
	<path class="st0" d="M264,90.3c-0.1,0.1-0.2,0.1-0.2,0.2l0,0L264,90.3z"/>
	<path class="st0" d="M264.5,89.8L264.5,89.8c-0.1,0.1-0.2,0.2-0.2,0.2L264.5,89.8z"/>
</g>
</svg>
