<?xml version="1.0" encoding="utf-8"?>
<!-- Generator: Adobe Illustrator 21.1.0, SVG Export Plug-In . SVG Version: 6.00 Build 0)  -->
<svg version="1.1" id="Слой_9" xmlns="http://www.w3.org/2000/svg" xmlns:xlink="http://www.w3.org/1999/xlink" x="0px" y="0px"
	 viewBox="0 0 500 270" style="enable-background:new 0 0 500 270;" xml:space="preserve">
<style type="text/css">
	.st0{fill:#4F9799;}
</style>
<g>
	<path class="st0" d="M25.7,261c5,0,9-4,9-9c0-5-4-9-9-9s-9,4-9,9C16.7,257,20.7,261,25.7,261z M25.7,244c4.4,0,8,3.6,8,8
		s-3.6,8-8,8s-8-3.6-8-8S21.3,244,25.7,244z"/>
	<path class="st0" d="M55.7,261c5,0,9-4,9-9c0-5-4-9-9-9s-9,4-9,9C46.7,257,50.7,261,55.7,261z M55.7,244c4.4,0,8,3.6,8,8
		s-3.6,8-8,8s-8-3.6-8-8S51.3,244,55.7,244z"/>
	<path class="st0" d="M85.7,261c5,0,9-4,9-9c0-5-4-9-9-9s-9,4-9,9C76.7,257,80.7,261,85.7,261z M85.7,244c4.4,0,8,3.6,8,8
		s-3.6,8-8,8s-8-3.6-8-8S81.3,244,85.7,244z"/>
	<path class="st0" d="M115.7,261c5,0,9-4,9-9c0-5-4-9-9-9s-9,4-9,9C106.7,257,110.7,261,115.7,261z M115.7,244c4.4,0,8,3.6,8,8
		s-3.6,8-8,8s-8-3.6-8-8S111.3,244,115.7,244z"/>
	<path class="st0" d="M145.7,261c5,0,9-4,9-9c0-5-4-9-9-9s-9,4-9,9C136.7,257,140.7,261,145.7,261z M145.7,244c4.4,0,8,3.6,8,8
		s-3.6,8-8,8s-8-3.6-8-8S141.3,244,145.7,244z"/>
	<path class="st0" d="M175.7,261c5,0,9-4,9-9c0-5-4-9-9-9s-9,4-9,9C166.7,257,170.7,261,175.7,261z M175.7,244c4.4,0,8,3.6,8,8
		s-3.6,8-8,8s-8-3.6-8-8S171.3,244,175.7,244z"/>
	<path class="st0" d="M205.7,261c5,0,9-4,9-9c0-5-4-9-9-9s-9,4-9,9C196.7,257,200.7,261,205.7,261z M205.7,244c4.4,0,8,3.6,8,8
		s-3.6,8-8,8s-8-3.6-8-8S201.3,244,205.7,244z"/>
	<path class="st0" d="M235.7,261c5,0,9-4,9-9c0-5-4-9-9-9s-9,4-9,9C226.7,257,230.7,261,235.7,261z M235.7,244c4.4,0,8,3.6,8,8
		s-3.6,8-8,8s-8-3.6-8-8S231.3,244,235.7,244z"/>
	<path class="st0" d="M265.7,261c5,0,9-4,9-9c0-5-4-9-9-9s-9,4-9,9C256.7,257,260.7,261,265.7,261z M265.7,244c4.4,0,8,3.6,8,8
		s-3.6,8-8,8s-8-3.6-8-8S261.3,244,265.7,244z"/>
	<path class="st0" d="M295.7,261c5,0,9-4,9-9c0-5-4-9-9-9s-9,4-9,9C286.7,257,290.7,261,295.7,261z M295.7,244c4.4,0,8,3.6,8,8
		s-3.6,8-8,8s-8-3.6-8-8S291.3,244,295.7,244z"/>
	<path class="st0" d="M325.7,261c5,0,9-4,9-9c0-5-4-9-9-9s-9,4-9,9C316.7,257,320.7,261,325.7,261z M325.7,244c4.4,0,8,3.6,8,8
		s-3.6,8-8,8s-8-3.6-8-8S321.3,244,325.7,244z"/>
	<path class="st0" d="M355.7,261c5,0,9-4,9-9c0-5-4-9-9-9s-9,4-9,9C346.7,257,350.7,261,355.7,261z M355.7,244c4.4,0,8,3.6,8,8
		s-3.6,8-8,8s-8-3.6-8-8S351.3,244,355.7,244z"/>
	<path class="st0" d="M385.7,261c5,0,9-4,9-9c0-5-4-9-9-9s-9,4-9,9C376.7,257,380.7,261,385.7,261z M385.7,244c4.4,0,8,3.6,8,8
		s-3.6,8-8,8c-4.4,0-8-3.6-8-8S381.3,244,385.7,244z"/>
	<path class="st0" d="M415.7,261c5,0,9-4,9-9c0-5-4-9-9-9c-5,0-9,4-9,9C406.7,257,410.7,261,415.7,261z M415.7,244c4.4,0,8,3.6,8,8
		s-3.6,8-8,8c-4.4,0-8-3.6-8-8S411.3,244,415.7,244z"/>
	<path class="st0" d="M445.7,261c5,0,9-4,9-9c0-5-4-9-9-9c-5,0-9,4-9,9C436.7,257,440.7,261,445.7,261z M445.7,244c4.4,0,8,3.6,8,8
		s-3.6,8-8,8c-4.4,0-8-3.6-8-8S441.3,244,445.7,244z"/>
	<path class="st0" d="M475.7,261c5,0,9-4,9-9c0-5-4-9-9-9c-5,0-9,4-9,9C466.7,257,470.7,261,475.7,261z M475.7,244c4.4,0,8,3.6,8,8
		s-3.6,8-8,8c-4.4,0-8-3.6-8-8S471.3,244,475.7,244z"/>
	<path class="st0" d="M260.3,145.3c3.5-2.9,5.7-7.3,5.7-12.3c0-8.2-6.1-14.9-14-15.9V109h8v-2h6l13.2-37.8c0.5-1.4,0.2-2.9-0.8-4
		L272,58V0h-1v56.9l-1-1.1V0h-1v54.6l-2.6-2.9c-1.5-1.7-3.7-2.7-6-2.7h-20.8c-2.3,0-4.5,1-6,2.7l-2.6,2.9V0h-1v55.7l-1,1.1V0h-1v58
		l-6.4,7.2c-1,1.1-1.3,2.6-0.8,4L234,107h6v2h8v8.1v0.9v3.2c0.7-0.1,1.3-0.2,2-0.2c6.6,0,12,5.4,12,12c0,4.6-2.6,8.5-6.3,10.6
		l-5.5-2l-0.2-0.1l-0.2,0.1l-5.5,2c-2.4-1.3-4.3-3.4-5.4-5.9l-3.6,1.8c1,2.2,2.5,4.2,4.4,5.8L-0.2,233.5L0,234v36h500v-36l0.2-0.5
		L260.3,145.3z M224.6,67.9l1.1-1.2L262,103h-8.6l-25.5-25.5L224.6,67.9z M230.4,61.4l35.1,35.1l-2.2,6.4l-36.9-36.9L230.4,61.4z
		 M252,103h-8.6l-10.1-10.1l-4.6-13.2L252,103z M271,80.6L243.4,53h8.6l21.2,21.2L271,80.6z M263.4,54.3l12.1,13.6l-1.8,5.3
		L253.4,53h7C261.5,53,262.6,53.5,263.4,54.3z M239.6,53h2.4l28.6,28.6l-2.2,6.4l-32.7-32.7l0.9-1C237.4,53.5,238.5,53,239.6,53z
		 M235.1,56.1l33,33l-2.2,6.4L231,60.6L235.1,56.1z M234.1,95l8,8h-5.2L234.1,95z M241,107h18v1h-18V107z M253.1,144.6l-2.9-1.1
		l-0.2-0.1l-3.1,1.1c0,0-0.1,0-0.1,0l3.2-2l3.2,2C253.2,144.6,253.1,144.6,253.1,144.6z M251.1,144.9c-0.4,0-0.7,0.1-1.1,0.1
		c-0.4,0-0.7,0-1.1-0.1l1.1-0.4L251.1,144.9z M242.1,147.4l0.6-0.2c2.2,1.1,4.7,1.8,7.3,1.8c2.6,0,5.1-0.6,7.3-1.8l0.6,0.2L399,234
		H101L242.1,147.4z M100,234H6.5l230.9-84.8L99.7,233.6L100,234z M262.7,149.2L493.5,234H400l0.3-0.4L262.7,149.2z M240.7,146
		c0.3,0.2,0.6,0.4,0.9,0.6l-236.7,87L5,234H1.4L240.7,146z M496,266H4v-28h492V266z M495,234l0.2-0.5l-236.7-87
		c0.3-0.2,0.6-0.4,0.9-0.6l239.2,88H495z"/>
</g>
</svg>
