<?xml version="1.0" encoding="utf-8"?>
<!-- Generator: Adobe Illustrator 21.1.0, SVG Export Plug-In . SVG Version: 6.00 Build 0)  -->
<svg version="1.1" xmlns="http://www.w3.org/2000/svg" xmlns:xlink="http://www.w3.org/1999/xlink" x="0px" y="0px"
	 viewBox="0 0 48 48" style="enable-background:new 0 0 48 48;" xml:space="preserve">
<style type="text/css">
	.st0{fill:#4F9799;}
</style>
<g id="Слой_2">
</g>
<g id="Слой_1">
	<path class="st0" d="M24,0C10.7,0,0,10.7,0,24s10.7,24,24,24s24-10.7,24-24S37.3,0,24,0z M17.9,15.6c0.9,0,1.6,0.7,1.6,1.6
		c0,0.9-0.7,1.6-1.6,1.6c-0.9,0-1.6-0.7-1.6-1.6C16.3,16.3,17,15.6,17.9,15.6z M19.5,30.5h-3.2V19.8h3.2V30.5z M32.3,30.5h-3.2v-5.8
		c0-1.2-0.3-2.4-1.7-2.4c-1.4,0-2.5,1.2-2.5,2.4v5.8h-3.2V19.8h3.2v1.5c1-1.2,2.4-1.8,3.9-1.8c1.6,0,3.5,0.8,3.5,5V30.5z"/>
</g>
</svg>
