<?xml version="1.0" encoding="utf-8"?>
<!-- Generator: Adobe Illustrator 21.1.0, SVG Export Plug-In . SVG Version: 6.00 Build 0)  -->
<svg version="1.1" id="Слой_1" xmlns="http://www.w3.org/2000/svg" xmlns:xlink="http://www.w3.org/1999/xlink" x="0px" y="0px"
	 viewBox="0 0 660 64" style="enable-background:new 0 0 660 64;" xml:space="preserve">
<style type="text/css">
	.st0{fill:#FFFFFF;}
	.st1{fill:#4F9799;}
</style>
<g>
	<g>
		<path class="st0" d="M195.3,37c10.3,0,18.7-8.3,18.7-18.6c0-10.3-8.4-18.6-18.7-18.6h-45.5v10.7h45.5c4.4,0,8,3.6,8,8
			c0,4.4-3.6,8-8,8h-45.5l0,4.2v33.1h10.7V37h19.2l26.8,26.6h15.1L194.8,37H195.3z"/>
	</g>
	<g>
		<polygon class="st0" points="221.6,10.3 248.3,10.3 248.3,63.6 259,63.6 259,10.3 285.8,10.3 285.8,-0.3 221.6,-0.3 		"/>
	</g>
	<g>
		<polygon class="st0" points="412.3,31.6 444.4,-0.3 429.3,-0.3 404.8,24.1 380.2,-0.3 365.1,-0.3 397.2,31.6 365.1,63.6 
			380.2,63.6 404.8,39.2 429.3,63.6 444.4,63.6 		"/>
	</g>
	<g>
		<polygon class="st0" points="78,63.6 142.3,63.6 142.3,52.9 88.7,52.9 88.7,37 142.3,37 142.3,26.3 78,26.3 		"/>
	</g>
	<g>
		<rect x="293.3" y="52.9" class="st0" width="64.2" height="10.7"/>
	</g>
	<g>
		<polygon class="st0" points="293.3,37 357.5,37 357.5,26.3 304,26.3 304,10.3 357.5,10.3 357.5,-0.3 293.3,-0.3 		"/>
	</g>
	<g>
		<polygon class="st0" points="38.4,42.8 12.4,-0.3 -0.1,-0.3 38.4,63.6 70.4,10.3 142.3,10.3 142.3,-0.3 64.3,-0.3 		"/>
	</g>
</g>
<g>
	<g>
		<path class="st1" d="M581.7,31.6c0,14.1-11.5,25.6-25.7,25.6h0c-14.2,0-25.7-11.5-25.7-25.6v-32h-6.4v32c0,17.7,14.4,32,32.1,32h0
			c17.8,0,32.1-14.3,32.1-32v-32h-6.4V31.6z"/>
	</g>
	<g>
		<path class="st1" d="M627.8-0.4h-32.1V6h32.1c14.2,0,25.7,11.5,25.7,25.6v0c0,14.1-11.5,25.6-25.7,25.6h-25.7V28.4h-6.4v35.2h32.1
			c17.8,0,32.1-14.3,32.1-32v0C659.9,14,645.6-0.4,627.8-0.4z"/>
	</g>
	<g>
		<path class="st1" d="M503.9,29.3c3-3.1,4.8-7.4,4.8-12.1v0c0-9.7-7.9-17.6-17.7-17.6h-39.1v35.2v0.1h46.6c6.2,0,11.2,5,11.2,11.2
			v0c0,6.2-5,11.2-11.2,11.2h-46.6v6.4h46.6c9.8,0,17.7-7.9,17.7-17.6C516.2,38.2,511,31.5,503.9,29.3z M491,28.4h-32.6V6H491
			c6.2,0,11.2,5,11.2,11.2S497.2,28.4,491,28.4z"/>
	</g>
</g>
</svg>
